<svg version="1" xmlns="http://www.w3.org/2000/svg" width="1000" height="1000" viewBox="0 0 750.000000 750.000000"><path d="M80 375v349h100.3c121.8 0 154-1.2 196.7-7.1 90.4-12.6 163.5-51.1 213.7-112.7 37.3-45.7 62-99 72.7-157.2 12.6-68.4 6.4-147.7-16.5-209.5-10.4-28.1-30.2-62.7-50.5-88-28.1-35-69.3-67-109.2-84.9-32.5-14.5-72.7-25.8-112.7-31.5-40.6-5.9-73.9-7.1-194.7-7.1H80v349zm219-269c47.5 2.1 65.4 5 84.8 14.1 15.7 7.2 27.6 17.8 34.1 29.8 1.6 3.1 4.2 9.7 5.7 14.6 2.7 8.6 2.8 9.9 2.8 31 .1 17.7-.3 23.6-1.7 30.3-4.4 20-10.8 33.1-21.6 44.5-8.7 9.1-17 14.9-31.3 21.7-27.5 13.1-46.5 15-154 15H150V105h63.3c34.7 0 73.3.5 85.7 1zm55.5 280.9c43.6 3.8 64.5 9.8 88 25.3 9.7 6.3 22.9 19.2 28 27.2 9.9 15.5 15.1 36.3 16.2 64.6 1.7 43.9-7.6 71.7-31.9 95.7-28 27.5-58.1 38.2-122.3 43.4-7.1.6-51.1 1.3-97.7 1.6l-84.8.5V384.8l95.8.5c60.2.3 100.5.9 108.7 1.6z"/></svg>