<?xml version="1.0" standalone="no"?>
<!DOCTYPE svg PUBLIC "-//W3C//DTD SVG 20010904//EN"
 "http://www.w3.org/TR/2001/REC-SVG-20010904/DTD/svg10.dtd">
<svg version="1.0" xmlns="http://www.w3.org/2000/svg"
 width="750.000000pt" height="750.000000pt" viewBox="0 0 750.000000 750.000000"
 preserveAspectRatio="xMidYMid meet">
<metadata>
Created by potrace 1.11, written by Peter Selinger 2001-2013
</metadata>
<g transform="translate(0.000000,750.000000) scale(0.100000,-0.100000)"
fill="#000000" stroke="none">
<path d="M1252 7289 c-22 -8 -49 -39 -34 -39 6 0 14 5 17 10 3 6 11 10 17 10
6 0 -1 -10 -16 -21 -15 -12 -25 -24 -22 -27 3 -3 15 3 26 13 19 17 20 17 30
-10 6 -15 8 -30 6 -33 -3 -2 -8 8 -12 22 -6 26 -7 26 -26 10 -17 -16 -17 -19
-2 -27 21 -12 174 -16 174 -4 0 4 4 5 10 2 18 -11 50 -14 50 -4 0 5 5 9 11 9
5 0 8 -4 5 -8 -6 -11 119 -10 130 1 4 4 15 7 25 7 10 0 17 6 15 13 -1 6 -1 9
1 5 2 -4 11 -4 19 -1 8 3 14 0 14 -7 0 -6 -4 -9 -9 -5 -5 3 -12 1 -16 -5 -3
-5 -15 -10 -26 -10 -11 0 -18 -4 -14 -10 4 -6 16 -5 33 1 15 6 27 10 27 9 0
-1 12 1 27 5 19 5 25 12 21 23 -4 14 -3 15 5 2 13 -17 6 -30 -14 -30 -8 0 -12
-5 -9 -10 4 -7 13 -6 27 1 11 6 23 7 27 3 8 -12 41 -14 41 -3 0 5 5 9 11 9 5
0 7 -6 3 -12 -5 -9 -2 -9 9 1 12 9 17 10 17 2 0 -7 5 -9 10 -6 8 5 7 11 -1 21
-8 10 -8 14 0 14 10 0 15 -13 12 -32 0 -5 6 -8 15 -8 8 0 12 5 9 10 -3 6 -1
10 4 10 6 0 11 -4 11 -9 0 -5 20 -9 45 -9 27 -1 43 3 40 8 -9 15 4 12 20 -3
14 -14 48 -17 53 -4 6 17 1 28 -10 21 -7 -5 -8 -3 -3 6 6 10 11 9 21 -5 7 -10
11 -22 8 -26 -2 -4 5 -7 16 -6 12 1 19 6 16 14 -3 7 -2 13 3 13 5 0 11 -10 14
-22 5 -18 8 -19 21 -8 11 8 16 9 16 1 0 -12 27 -10 49 3 10 6 12 5 7 -2 -4 -7
0 -12 11 -13 10 0 26 -2 36 -4 9 -2 17 1 17 7 0 6 -8 7 -17 3 -13 -4 -15 -3
-7 5 13 13 46 2 37 -13 -4 -6 0 -8 9 -4 9 3 19 3 23 -1 3 -4 18 -7 33 -8 51
-3 111 -12 121 -19 15 -9 14 8 -1 23 -9 9 -9 12 -1 12 7 0 15 -9 18 -20 3 -11
9 -21 13 -21 4 -1 16 -3 27 -5 53 -8 90 -16 110 -24 22 -9 48 0 45 16 0 5 7
10 17 11 15 2 15 1 -2 -6 -11 -5 -16 -10 -11 -10 5 -1 2 -9 -5 -18 -12 -15
-12 -16 2 -11 9 4 20 3 25 -2 5 -5 22 -11 38 -14 16 -3 31 -8 34 -10 3 -3 12
0 20 7 13 10 15 9 9 -5 -7 -20 9 -25 16 -5 4 7 6 6 6 -4 1 -14 11 -20 64 -34
4 -2 10 -4 15 -5 4 -1 10 -2 15 -1 4 0 7 -3 7 -9 0 -5 7 -7 15 -4 8 3 13 10
12 16 -1 6 6 12 17 13 16 3 15 0 -5 -22 -18 -19 -19 -25 -7 -20 9 3 18 1 20
-4 2 -5 13 -11 26 -12 12 0 22 -4 22 -7 0 -3 9 -11 21 -18 15 -10 19 -10 14
-1 -5 7 -3 10 6 7 8 -3 13 -11 11 -18 -2 -8 3 -10 13 -7 8 4 15 3 15 -2 0 -5
12 -16 26 -26 15 -9 23 -12 20 -6 -4 6 -2 11 3 11 6 0 11 -8 11 -17 0 -15 4
-13 20 7 18 24 19 24 17 3 0 -12 -5 -19 -9 -17 -4 3 -8 1 -8 -5 0 -5 10 -13
23 -17 12 -4 29 -15 38 -25 9 -11 19 -19 23 -19 4 0 17 -9 29 -20 12 -11 27
-18 34 -16 7 3 13 0 13 -8 0 -17 90 -97 102 -90 6 4 5 10 -3 15 -8 5 -9 9 -4
9 6 0 16 -4 23 -9 11 -7 11 -9 -2 -14 -9 -4 -16 -12 -16 -18 0 -8 4 -9 13 0
14 11 27 5 27 -13 0 -6 -5 -4 -10 4 -5 8 -10 10 -10 5 0 -12 78 -108 92 -114
6 -2 6 5 -1 17 -13 25 4 41 22 23 9 -9 8 -10 -7 -5 -16 6 -17 5 -7 -14 7 -12
16 -22 22 -22 6 0 7 5 3 12 -4 7 -3 8 5 4 15 -10 3 -29 -14 -22 -23 8 -26 -7
-6 -28 11 -12 21 -25 23 -31 2 -5 9 -9 17 -8 9 1 10 -2 3 -9 -10 -10 20 -75
41 -89 5 -4 7 -11 3 -17 -3 -6 -1 -14 5 -18 8 -5 9 -3 4 6 -5 8 -4 11 3 6 6
-4 9 -13 6 -21 -3 -7 2 -25 11 -39 9 -14 16 -26 15 -28 -3 -5 12 -62 19 -73 6
-11 7 -17 9 -52 1 -13 6 -23 12 -23 5 0 6 8 3 18 -7 16 -6 16 11 0 9 -10 22
-18 27 -18 5 0 9 -5 9 -11 0 -8 -4 -8 -15 1 -17 14 -35 5 -34 -18 0 -11 3 -12
6 -4 2 6 9 12 14 12 6 0 6 -7 0 -18 -10 -19 -4 -69 11 -78 5 -3 17 0 26 8 15
12 16 11 3 -5 -8 -10 -21 -15 -28 -12 -9 3 -13 0 -10 -7 2 -7 11 -12 18 -10
10 2 9 -1 -3 -14 -12 -12 -14 -23 -7 -43 5 -14 10 -69 11 -121 3 -83 5 -95 21
-94 9 1 17 -3 17 -8 0 -6 -9 -8 -20 -5 -11 3 -20 1 -20 -4 0 -5 5 -9 11 -9 6
0 7 -5 2 -12 -12 -20 -12 -82 1 -97 8 -12 8 -13 -1 -7 -9 5 -13 -1 -14 -21 -1
-15 -2 -35 -3 -43 -1 -8 4 -25 11 -37 8 -13 10 -23 6 -23 -5 0 -1 -5 7 -11 13
-9 13 -10 0 -6 -8 2 -15 10 -15 17 0 7 -5 15 -12 17 -6 2 -10 -4 -8 -14 1 -10
-1 -25 -5 -33 -14 -29 -19 -100 -7 -94 7 3 4 -1 -6 -10 -13 -10 -17 -21 -12
-37 6 -16 4 -20 -6 -13 -11 6 -12 5 -3 -7 12 -15 15 -49 5 -49 -16 -1 -42 -30
-36 -40 5 -8 12 -5 22 7 10 11 9 7 -2 -11 -14 -23 -15 -28 -3 -24 8 4 15 0 15
-7 0 -10 -5 -11 -19 -4 -10 6 -16 14 -13 20 4 5 2 9 -4 9 -6 0 -16 -19 -23
-42 -6 -24 -15 -45 -18 -48 -9 -7 -24 -43 -22 -52 1 -5 -2 -8 -7 -8 -15 0 -22
-33 -9 -42 9 -6 6 -7 -8 -3 -18 4 -24 0 -32 -25 -6 -16 -17 -30 -24 -30 -10 0
-10 -2 0 -9 10 -6 8 -10 -9 -14 -20 -5 -21 -8 -8 -23 12 -16 12 -17 -3 -11
-19 7 -39 -19 -31 -41 3 -7 -1 -10 -9 -7 -14 6 -71 -46 -69 -62 1 -4 -3 -8 -7
-8 -16 0 -43 -35 -36 -46 4 -8 3 -9 -4 -5 -7 4 -12 2 -12 -5 0 -7 -3 -10 -6
-6 -10 9 -54 -35 -54 -55 0 -10 -5 -18 -11 -18 -5 0 -7 6 -3 13 8 12 -14 -3
-50 -35 -11 -10 -24 -18 -29 -18 -5 0 -4 -7 3 -15 11 -13 10 -14 -3 -10 -18 7
-87 -34 -87 -52 0 -7 7 -16 16 -21 14 -8 14 -10 2 -15 -8 -3 -21 -1 -29 4 -9
6 -10 9 -2 9 7 0 10 7 7 15 -5 13 -9 12 -24 -5 -9 -11 -20 -17 -24 -13 -3 3
-6 1 -6 -5 0 -7 -6 -12 -13 -12 -7 0 -22 -7 -33 -16 -10 -8 -14 -13 -8 -10 7
3 17 -1 24 -9 9 -10 9 -15 1 -15 -6 0 -11 4 -11 9 0 7 -18 8 -53 2 -5 0 -5 -5
-2 -11 3 -6 -1 -7 -9 -4 -9 3 -16 1 -16 -5 0 -6 5 -11 10 -11 6 0 10 -5 10
-12 0 -7 -7 -5 -18 5 -16 15 -20 14 -50 -5 -29 -18 -32 -25 -32 -68 0 -43 9
-61 30 -66 3 0 12 -3 20 -6 37 -15 145 -36 153 -31 5 3 12 1 16 -5 3 -5 44
-22 91 -36 46 -15 90 -31 96 -37 20 -16 28 10 10 30 -9 10 -16 21 -16 26 0 4
9 -4 20 -18 11 -14 19 -32 18 -39 -2 -9 8 -13 29 -13 17 0 29 -3 27 -6 -2 -4
4 -13 13 -20 14 -12 16 -12 9 1 -6 12 -5 12 6 -1 15 -18 48 -33 66 -30 6 1 12
-4 12 -10 0 -7 3 -9 6 -6 12 11 -17 36 -34 30 -14 -4 -15 -3 -2 6 16 11 50
-12 50 -34 0 -17 28 -27 34 -12 3 8 5 8 5 -1 1 -16 41 -51 58 -52 6 0 18 -6
25 -13 7 -8 24 -20 38 -27 13 -7 29 -17 34 -21 6 -5 39 -32 73 -60 57 -46 64
-49 79 -35 23 24 30 19 8 -5 -17 -19 -17 -21 -2 -30 9 -5 24 -16 32 -25 9 -8
20 -13 26 -9 5 3 7 0 4 -8 -3 -8 6 -23 20 -35 14 -11 26 -25 26 -32 0 -7 8 -9
20 -5 12 4 20 2 20 -5 0 -6 -4 -8 -10 -5 -17 10 -11 -3 12 -30 11 -13 25 -22
30 -19 4 3 8 -4 8 -16 0 -12 4 -18 10 -15 6 3 10 0 10 -8 0 -20 38 -57 58 -57
15 1 15 2 -2 15 -16 12 -17 17 -7 28 10 10 12 9 9 -3 -2 -8 2 -14 9 -13 6 1
10 -5 8 -15 -1 -11 -11 -17 -25 -16 l-23 1 21 -17 c12 -10 18 -21 14 -25 -4
-5 1 -5 10 -2 17 6 39 -18 38 -40 -1 -4 -7 3 -14 16 -8 15 -16 20 -20 12 -4
-6 -3 -11 2 -11 4 0 35 -53 67 -117 33 -65 64 -121 70 -125 5 -4 6 -8 1 -8 -6
0 -1 -6 9 -14 11 -8 23 -12 27 -10 5 3 8 0 8 -5 0 -14 -13 -14 -28 1 -9 9 -12
9 -12 -3 0 -9 11 -22 25 -29 14 -7 23 -15 20 -18 -2 -3 -11 1 -19 7 -12 10
-13 9 -9 -9 4 -15 11 -19 27 -15 21 6 21 6 2 -9 -20 -16 -20 -16 0 -32 10 -8
14 -13 7 -10 -12 7 -12 -11 1 -32 4 -7 5 -16 2 -19 -3 -3 2 -12 12 -20 9 -8
11 -12 5 -8 -8 4 -13 0 -13 -9 0 -9 5 -16 11 -16 5 0 8 -4 5 -9 -9 -14 20 -21
35 -8 11 10 11 9 0 -5 -7 -10 -17 -15 -22 -12 -5 3 -9 -4 -9 -15 0 -23 27 -41
50 -33 11 3 12 2 4 -8 -9 -9 -17 -9 -33 -1 -27 15 -27 7 0 -20 11 -11 18 -27
15 -34 -3 -8 -1 -17 4 -20 6 -4 10 -1 10 6 0 7 3 10 6 6 3 -3 3 -11 -1 -17 -5
-8 -11 -8 -21 1 -7 6 -11 15 -8 20 3 5 0 17 -6 26 -8 14 -9 11 -4 -17 3 -19 6
-51 7 -72 1 -20 5 -34 8 -32 4 2 6 -11 4 -29 -3 -38 4 -59 16 -51 5 3 5 13 -1
25 -15 27 -5 24 14 -6 9 -14 13 -24 9 -24 -4 1 -16 -1 -26 -6 -16 -7 -17 -9
-2 -25 14 -16 14 -19 0 -33 -14 -14 -13 -17 7 -33 17 -12 18 -15 5 -10 -15 5
-18 1 -15 -22 2 -15 8 -26 15 -25 7 2 17 -6 23 -17 7 -14 7 -20 0 -20 -5 0
-10 6 -10 13 0 8 -7 14 -15 14 -19 0 -21 -57 -2 -57 6 0 4 -5 -7 -11 -15 -9
-16 -13 -5 -20 12 -7 11 -9 -1 -9 -8 -1 -1 -7 15 -16 28 -13 28 -14 4 -9 -25
4 -25 3 -24 -51 0 -31 -3 -58 -8 -61 -4 -2 -2 -11 4 -20 9 -10 10 -16 2 -21
-7 -4 -13 -30 -16 -58 -2 -28 -7 -56 -12 -63 -4 -8 -2 -17 6 -22 8 -5 9 -9 4
-9 -14 0 -36 -74 -24 -78 5 -2 9 -8 9 -13 0 -6 -4 -8 -8 -5 -15 9 -31 -60 -18
-75 8 -9 8 -10 -1 -5 -7 4 -13 2 -13 -3 0 -6 0 -13 0 -16 0 -3 -9 -25 -20 -50
-11 -25 -16 -45 -12 -45 4 0 2 -4 -3 -8 -18 -12 -35 -61 -28 -79 5 -12 3 -14
-7 -8 -9 5 -11 4 -6 -3 4 -7 2 -12 -5 -12 -7 0 -5 -8 6 -20 10 -11 13 -20 7
-20 -7 0 -12 5 -12 10 0 6 -5 10 -11 10 -5 0 -7 -4 -4 -10 3 -5 1 -10 -5 -10
-6 0 -9 -4 -6 -9 4 -5 3 -11 -1 -13 -5 -1 -24 -33 -43 -70 -19 -38 -37 -68
-40 -68 -3 0 -11 -14 -19 -31 -10 -23 -10 -34 -2 -42 6 -6 11 -15 11 -21 0 -5
-6 -2 -13 9 -13 17 -43 13 -32 -5 3 -5 -1 -12 -9 -17 -8 -4 -16 -15 -18 -23
-2 -8 -13 -23 -26 -33 -12 -10 -20 -22 -17 -27 3 -5 -1 -11 -7 -13 -10 -4 -10
-8 1 -15 16 -11 25 -46 10 -36 -5 3 -7 9 -4 14 3 4 -3 11 -12 14 -19 8 -46
-20 -36 -37 3 -6 2 -7 -4 -4 -5 3 -34 -20 -64 -51 -30 -31 -47 -52 -39 -47 23
13 10 1 -41 -37 -60 -46 -86 -68 -119 -100 -15 -15 -30 -24 -34 -21 -3 3 -8
-2 -12 -11 -3 -9 -13 -16 -20 -16 -8 0 -17 -7 -20 -15 -4 -8 -11 -12 -17 -8
-7 4 -8 0 -4 -11 5 -13 3 -17 -7 -13 -21 8 -50 -17 -43 -36 8 -21 -10 -32 -28
-17 -11 9 -19 8 -35 -3 -11 -7 -17 -17 -12 -22 4 -4 -1 -5 -10 -2 -10 3 -20 2
-23 -3 -4 -6 -1 -10 4 -10 11 0 10 -34 -1 -46 -4 -3 -5 2 -4 13 2 10 -2 21 -7
25 -11 6 -96 -37 -108 -55 -4 -5 -12 -6 -19 -2 -14 9 -10 -36 5 -48 6 -5 4 -7
-5 -4 -8 2 -15 10 -15 18 -1 16 -45 15 -56 -2 -3 -6 -9 -10 -13 -9 -4 1 -10 0
-14 -3 -4 -2 -2 -2 5 -1 7 2 10 -3 6 -11 -3 -11 -10 -12 -23 -5 -9 5 -21 6
-25 2 -3 -4 -10 -7 -13 -8 -4 0 -15 -4 -24 -7 -10 -4 -26 -10 -35 -14 -10 -3
-21 -5 -25 -5 -5 1 -8 -2 -8 -6 0 -4 -29 -16 -64 -26 -43 -13 -68 -26 -75 -40
-7 -13 -10 -14 -7 -4 6 21 5 21 -31 6 -15 -6 -35 -10 -42 -9 -13 2 -13 0 -1
-16 13 -16 13 -16 -8 1 -17 14 -22 16 -22 5 0 -8 -9 -20 -20 -27 -25 -15 -27
-4 -2 14 15 12 15 13 -8 9 -14 -3 -32 -13 -41 -24 -14 -17 -19 -18 -35 -6 -12
8 -25 10 -35 4 -9 -4 -19 -5 -23 -2 -3 3 -6 2 -6 -4 0 -6 -9 -9 -20 -6 -11 3
-20 1 -20 -4 0 -6 -18 -9 -40 -7 -22 1 -38 -1 -36 -5 2 -3 -17 -7 -42 -8 -83
-4 -107 -8 -115 -20 -4 -7 -22 -22 -40 -33 -25 -17 -28 -18 -10 -2 11 10 18
23 15 28 -11 14 -42 10 -52 -6 -6 -9 -10 -10 -10 -3 0 8 -14 11 -37 10 -28 -1
-43 -9 -55 -27 -10 -14 -18 -20 -18 -14 0 5 5 15 12 22 9 9 7 12 -9 12 -18 0
-21 -5 -17 -27 3 -15 2 -25 -1 -21 -4 3 -8 14 -9 25 -2 14 -12 18 -45 18 -24
1 -50 -5 -59 -13 -15 -12 -15 -12 6 -7 12 4 22 2 22 -3 0 -5 -10 -9 -22 -8
-17 1 -22 7 -20 21 3 16 2 17 -12 6 -13 -11 -16 -11 -17 0 0 8 -4 5 -8 -6 -5
-11 -5 -25 0 -31 5 -7 3 -11 -5 -11 -9 0 -13 8 -10 24 3 17 0 23 -14 23 -10 0
-23 -5 -30 -12 -9 -9 -12 -9 -12 0 0 6 -11 11 -25 10 -14 -1 -25 -7 -25 -13 0
-7 -3 -7 -8 0 -4 6 -33 11 -65 11 -44 0 -56 -3 -53 -13 3 -7 1 -13 -3 -13 -5
0 -11 7 -15 15 -3 8 -10 15 -16 15 -8 0 -8 -6 0 -20 8 -15 6 -21 -11 -30 -11
-7 -23 -9 -27 -6 -3 3 0 6 7 6 7 0 9 4 6 10 -4 6 1 7 11 3 14 -5 15 -3 3 18
-7 15 -14 19 -17 11 -2 -6 -7 -10 -12 -7 -12 8 -40 -24 -40 -45 0 -23 26 -50
48 -51 9 0 25 -2 35 -4 14 -3 17 1 12 18 l-5 22 11 -22 c11 -21 49 -28 49 -10
0 5 -7 6 -16 3 -8 -3 -12 -2 -9 4 3 6 1 10 -4 10 -6 0 -11 5 -11 11 0 8 5 8
15 -1 12 -10 18 -10 30 0 10 9 15 9 15 1 0 -6 -5 -11 -11 -11 -8 0 -7 -6 2
-16 12 -15 14 -14 20 7 4 15 7 18 8 7 1 -22 41 -35 52 -17 7 12 9 12 9 0 0
-11 3 -11 17 0 9 8 14 10 11 4 -4 -6 11 -10 38 -10 26 0 46 5 49 13 2 6 0 12
-5 12 -6 0 -10 5 -10 11 0 8 6 7 17 -2 15 -12 16 -12 10 6 -7 19 -7 19 8 1 15
-19 11 -41 -6 -31 -5 4 -9 2 -9 -4 0 -5 9 -9 20 -8 11 1 20 6 20 12 0 5 4 4 9
-3 6 -10 10 -8 14 8 4 16 2 20 -9 16 -8 -3 -13 -2 -9 3 3 5 -1 12 -7 14 -8 4
-9 6 -2 6 7 1 22 -8 35 -20 13 -11 18 -17 10 -13 -9 4 -12 2 -9 -6 4 -14 68
-20 68 -7 0 5 6 5 13 0 15 -9 37 -13 37 -6 0 2 -5 14 -11 26 -10 18 -7 17 14
-5 31 -33 36 -34 34 -8 -1 13 -6 19 -15 15 -7 -2 -10 0 -7 5 3 6 1 10 -6 10
-7 0 -9 3 -6 6 10 10 57 -24 53 -39 -1 -6 -1 -9 1 -5 3 5 14 3 25 -3 18 -10
20 -9 15 5 -4 9 -2 16 3 16 6 0 10 -8 11 -17 0 -12 2 -13 6 -5 4 10 8 10 21 0
13 -11 15 -10 9 5 -3 9 -2 17 3 17 6 0 10 -4 10 -10 0 -5 22 -9 50 -9 27 1 47
6 44 10 -3 5 0 9 5 9 6 0 11 -4 11 -10 0 -5 14 -10 31 -10 21 0 28 4 23 12 -6
11 -4 11 7 0 18 -16 29 -15 29 4 0 8 -3 13 -8 10 -4 -2 -16 2 -27 10 -19 14
-19 14 5 11 14 -2 29 -13 35 -25 5 -12 13 -22 18 -22 4 0 5 5 1 12 -5 7 -3 8
7 2 25 -15 39 -13 59 13 11 14 20 21 20 15 0 -6 -5 -14 -10 -17 -6 -3 -10 -11
-10 -18 0 -8 3 -8 12 1 14 14 32 16 23 3 -3 -6 8 -6 28 0 18 5 43 7 55 4 12
-2 22 0 22 6 0 5 5 9 11 9 5 0 7 -4 4 -10 -3 -5 -1 -10 4 -10 6 0 11 6 11 13
0 8 3 7 10 -3 8 -12 10 -12 16 3 3 9 10 17 16 17 5 0 7 -4 4 -9 -6 -9 90 -8
100 1 3 4 12 4 20 1 8 -3 22 1 31 8 9 8 14 9 10 3 -5 -8 7 -10 41 -7 71 7 75
9 62 35 -11 22 -10 22 4 4 9 -10 13 -23 9 -29 -3 -5 4 -6 18 -1 13 4 39 7 57
6 33 -2 43 13 21 35 -8 8 -7 13 2 18 7 5 10 4 5 -3 -3 -6 -2 -13 4 -17 5 -3
10 -1 10 4 0 6 5 11 12 11 9 0 9 -3 0 -12 -7 -7 -12 -19 -12 -27 0 -10 6 -7
17 9 10 14 17 29 15 33 -1 5 2 6 8 2 8 -5 7 -11 -1 -21 -6 -8 -9 -17 -5 -21 3
-4 13 2 21 13 15 19 15 19 9 -1 -6 -16 -4 -18 6 -8 7 6 19 9 26 6 10 -4 12 0
8 13 -6 17 -5 17 9 -1 l16 -20 1 20 c0 15 3 17 9 7 11 -18 43 -11 59 13 9 13
12 14 8 4 -3 -13 2 -16 19 -15 13 0 21 6 18 11 -3 6 0 5 6 -1 10 -9 19 -6 38
12 14 13 33 24 42 24 9 0 1 -8 -17 -17 -36 -18 -36 -29 0 -17 13 4 25 6 27 5
11 -7 18 26 10 43 -10 20 -10 20 5 2 9 -10 13 -23 10 -27 -3 -5 2 -9 11 -9 10
0 14 5 9 13 -5 9 -4 9 6 0 8 -7 19 -9 29 -4 9 5 21 10 26 10 6 1 10 8 10 16 0
8 8 22 18 32 9 9 17 12 17 6 0 -6 -7 -13 -15 -17 -9 -3 -12 -12 -9 -21 4 -10
13 -14 23 -9 9 3 22 7 29 7 6 0 12 3 12 7 0 3 8 6 18 7 37 3 88 15 99 25 7 5
17 7 23 3 5 -3 10 -2 10 4 0 5 -6 11 -12 14 -7 2 0 4 16 4 21 0 25 -2 15 -9
-11 -8 -11 -9 1 -5 103 32 128 41 125 47 -2 4 10 7 27 7 18 0 34 5 36 11 2 7
8 10 13 6 5 -3 9 0 9 6 0 6 4 9 9 6 10 -7 114 34 119 46 2 5 8 6 13 2 6 -3 7
8 4 28 -4 23 -2 29 4 18 5 -8 8 -17 5 -21 -2 -4 0 -10 5 -13 11 -7 61 14 61
25 0 5 6 6 14 3 8 -3 17 0 22 7 5 8 3 10 -7 4 -8 -5 -11 -5 -7 0 4 4 3 16 -2
26 -9 15 -7 17 12 13 13 -3 28 -6 35 -6 7 -1 10 -5 7 -10 -3 -4 -14 -3 -25 2
-11 6 -19 7 -19 1 0 -18 33 -21 61 -4 16 10 29 21 29 26 0 4 5 5 11 2 5 -4 18
0 27 8 9 9 20 16 25 16 14 1 72 34 79 45 4 6 8 7 8 3 0 -5 13 0 30 9 26 16 28
20 15 34 -10 11 -11 20 -4 30 9 13 10 12 5 -2 -8 -28 22 -38 55 -19 28 16 38
31 20 31 -5 0 -12 -5 -14 -10 -3 -6 -4 -5 -3 2 2 7 11 13 22 13 28 1 64 15 64
26 0 6 14 15 30 20 35 13 36 17 13 35 -16 13 -15 13 8 5 30 -11 67 8 56 27 -5
6 0 8 12 5 12 -3 24 3 33 16 8 12 18 18 23 13 4 -4 5 0 3 8 -3 8 -12 13 -19
11 -42 -11 -51 -10 -24 2 22 11 34 11 44 3 11 -8 15 -8 18 2 3 6 10 12 17 12
7 0 21 11 32 24 10 14 21 23 25 20 4 -2 11 1 15 7 4 8 3 9 -4 5 -7 -4 -12 -5
-12 -2 0 3 12 12 28 21 15 8 40 26 56 39 l30 25 -24 19 -24 19 24 -1 c14 -1
24 -7 22 -14 -1 -7 3 -12 9 -12 7 0 9 10 5 25 -6 25 7 34 20 13 5 -7 3 -8 -6
-3 -9 6 -11 4 -6 -4 10 -16 49 17 42 35 -3 8 1 11 10 7 7 -3 14 0 14 6 0 6
-10 11 -22 12 l-23 1 23 6 c13 4 24 12 25 17 1 6 12 9 24 7 12 -1 24 2 28 8 4
6 -1 7 -11 3 -12 -4 -15 -3 -10 5 4 7 15 12 24 12 15 1 51 40 124 134 13 16
30 37 38 45 26 28 80 99 80 105 0 3 -5 6 -11 6 -5 0 -7 -4 -4 -10 3 -5 1 -10
-5 -10 -21 0 -4 24 21 31 13 4 20 7 14 8 -5 1 1 8 13 17 12 8 22 22 22 30 0 8
5 14 11 14 5 0 7 5 4 10 -3 6 1 13 9 16 9 3 16 12 16 19 0 7 6 18 14 24 17 14
15 39 -5 52 -9 5 -10 9 -2 9 6 0 15 -4 18 -10 18 -29 41 10 24 42 -6 11 -8 22
-5 25 3 3 10 -5 15 -18 l9 -24 13 30 c8 17 18 33 24 37 6 5 6 8 0 8 -6 0 -6 3
0 8 6 4 18 19 27 34 13 20 14 28 5 31 -7 3 -6 6 4 6 21 1 34 31 15 31 -8 0
-17 -5 -19 -10 -3 -6 -4 -5 -3 2 1 7 12 14 23 16 29 4 136 222 118 237 -7 6
-15 19 -19 30 -4 11 -4 16 0 12 4 -4 13 1 21 11 13 15 13 15 4 -5 -15 -30 -14
-40 4 -40 9 0 14 6 11 14 -3 7 -1 13 5 13 6 0 7 4 4 10 -3 6 -2 10 3 10 5 0
12 8 15 18 2 9 8 26 12 37 5 16 5 17 -4 5 -7 -9 -11 -11 -11 -3 0 7 6 16 14
20 11 6 56 104 56 120 0 1 -8 0 -17 -3 -10 -2 -8 1 5 7 12 7 23 20 23 31 2 26
3 31 18 58 10 17 11 25 2 28 -6 2 -16 13 -22 25 -9 20 -9 20 4 5 8 -10 20 -18
28 -18 11 0 11 2 -1 10 -13 8 -12 10 3 10 10 0 15 4 12 10 -3 5 -1 18 4 28 6
11 12 30 15 43 3 13 8 34 12 47 5 16 2 22 -9 22 -9 0 -19 5 -22 10 -4 7 2 9
19 4 32 -8 34 3 4 17 l-23 10 23 -5 c12 -2 22 -1 23 2 0 4 2 14 4 22 2 8 7 29
10 45 3 17 13 62 20 100 8 39 17 86 20 105 2 19 7 47 10 63 3 15 1 27 -5 27
-5 0 -10 5 -10 11 0 5 5 7 10 4 6 -3 10 0 10 7 1 7 5 32 9 55 5 24 4 40 0 37
-5 -3 -9 0 -9 5 0 6 4 11 8 11 4 0 8 10 9 23 0 12 3 48 6 80 3 35 2 57 -4 57
-6 0 -8 -4 -5 -8 2 -4 -5 -9 -17 -9 -19 -2 -19 -1 5 15 21 14 25 24 23 54 -1
21 1 35 5 33 9 -5 6 27 -4 43 -4 7 -2 12 6 13 7 0 4 4 -7 9 -14 6 -15 9 -5 9
19 1 21 41 3 41 -7 0 -10 -7 -7 -17 5 -15 4 -15 -4 -3 -13 17 -6 30 14 30 8 0
13 5 11 12 -3 18 -21 37 -29 31 -4 -2 -5 4 -1 13 5 13 3 15 -7 9 -9 -6 -11 -4
-5 5 6 10 13 7 27 -11 17 -22 18 -22 16 -4 -4 30 -29 46 -48 32 -8 -6 -6 -2 4
11 11 12 24 22 30 21 6 0 6 -3 -2 -6 -12 -5 -7 -23 7 -23 10 0 8 67 -3 77 -5
5 -6 2 -1 -6 6 -10 4 -12 -5 -6 -11 7 -10 10 1 19 8 6 16 20 17 31 4 17 1 17
-17 -5 -11 -14 -20 -19 -21 -12 0 6 3 12 8 12 4 0 12 11 18 25 10 21 9 26 -9
38 -16 11 -18 15 -7 22 9 5 11 4 6 -3 -4 -7 -3 -12 3 -12 6 0 9 21 8 49 -1 27
-5 47 -9 44 -5 -2 -8 1 -8 6 0 6 5 11 12 11 9 0 9 3 0 12 -15 15 -16 32 -1 22
8 -4 8 -1 1 12 -5 11 -7 25 -4 33 3 9 0 11 -8 6 -10 -6 -11 -4 -4 6 14 23 13
67 -2 73 -8 3 -22 3 -31 0 -17 -5 -17 -5 0 6 9 6 21 9 26 5 5 -3 8 2 7 11 -1
9 -13 22 -26 29 l-23 13 21 6 c25 8 30 36 7 36 -8 0 -14 -5 -12 -11 1 -6 -5
-14 -13 -16 -12 -4 -12 -3 -1 5 11 8 10 12 -5 21 -13 8 -15 11 -4 10 51 -5 65
14 34 45 -9 10 -11 16 -4 16 7 0 9 8 5 21 -4 12 -8 37 -9 56 -2 19 -11 39 -22
47 -10 8 -16 18 -11 22 4 4 7 2 7 -4 0 -7 5 -12 11 -12 5 0 7 5 3 11 -4 7 -8
21 -9 33 -6 87 -18 123 -44 134 -25 11 -25 11 -1 5 22 -5 23 -4 12 10 -7 8 -9
17 -4 19 13 4 -4 48 -19 48 -8 0 -8 -4 1 -15 7 -9 10 -18 6 -22 -3 -3 -6 -1
-6 7 0 10 -3 10 -14 1 -12 -10 -14 -9 -12 5 1 9 10 22 19 29 22 16 21 20 -5
45 -12 11 -18 23 -15 27 4 3 7 1 7 -5 0 -7 5 -12 10 -12 7 0 7 7 -1 21 -6 12
-13 36 -16 53 -3 17 -9 38 -14 47 -4 9 -5 19 -2 23 3 3 1 6 -6 6 -7 0 -10 4
-6 9 3 5 -2 16 -11 25 -8 9 -13 20 -10 25 9 13 -12 63 -23 56 -5 -3 -13 0 -17
6 -4 8 -3 9 4 5 13 -8 15 7 6 42 -6 22 -8 22 -31 6 -14 -9 -23 -11 -19 -6 3 6
3 12 -1 15 -5 2 -3 2 4 1 6 -2 17 5 25 13 11 15 11 16 -7 9 -16 -6 -18 -5 -7
5 16 17 16 34 -1 20 -8 -6 -18 -7 -22 -3 -5 4 -5 -2 -1 -13 5 -15 4 -17 -5 -8
-12 12 -3 37 11 28 11 -7 20 20 10 31 -4 5 -13 26 -20 47 -6 20 -20 42 -31 47
-10 6 -19 16 -19 23 0 7 4 6 10 -3 13 -21 12 -6 -2 25 -8 19 -17 24 -32 20
-18 -5 -19 -4 -5 7 15 10 13 18 -19 80 -20 37 -41 68 -48 68 -7 0 -16 5 -20
12 -5 8 -2 9 10 5 14 -6 15 -3 6 14 -6 11 -17 22 -25 25 -8 3 -11 12 -8 20 3
7 -2 17 -11 20 -9 3 -13 10 -10 15 3 5 0 9 -5 9 -6 0 -10 3 -9 8 2 6 -23 50
-45 77 -4 6 -23 35 -42 65 -19 30 -42 58 -50 63 -8 4 -15 14 -15 21 0 8 -7 17
-16 20 -9 3 -12 11 -8 18 5 8 2 9 -10 5 -10 -4 -15 -3 -11 3 3 6 -10 30 -30
55 l-37 45 -17 -22 c-14 -16 -20 -18 -26 -8 -5 8 -4 11 3 6 6 -3 16 3 22 15
10 17 8 25 -11 45 -12 13 -26 21 -30 18 -5 -3 -9 4 -9 16 0 12 -9 24 -22 30
-13 5 -19 9 -15 9 13 1 -105 120 -125 127 -10 3 -16 10 -13 15 4 5 0 9 -8 9
-7 0 -20 11 -27 25 -12 23 -14 23 -27 7 -12 -16 -13 -16 -7 0 4 11 -4 27 -20
43 -26 26 -46 32 -46 14 0 -5 5 -7 11 -3 8 4 8 0 0 -15 -14 -25 -15 -26 -32
-3 -13 15 -12 16 2 4 15 -11 17 -9 15 18 -1 24 -12 39 -51 70 -28 22 -52 40
-55 40 -3 0 -6 -9 -7 -21 -2 -17 1 -18 13 -9 8 8 14 8 14 2 0 -13 -28 -24 -34
-13 -3 4 -3 21 0 36 5 26 3 27 -12 14 -16 -12 -17 -12 -11 3 3 9 -1 22 -9 29
-12 10 -14 9 -9 -7 4 -13 2 -12 -6 4 -13 24 -24 28 -34 12 -11 -17 -26 0 -20
22 5 14 1 21 -14 25 -12 3 -21 10 -21 15 0 6 -7 8 -15 4 -10 -3 -15 1 -15 12
0 15 -2 15 -10 2 -8 -13 -10 -12 -10 3 0 19 -15 23 -25 7 -3 -5 -1 -10 6 -10
7 0 10 -3 6 -6 -3 -3 -11 -3 -17 1 -8 5 -8 10 0 20 9 10 6 16 -10 25 -11 6
-25 8 -30 5 -6 -4 -9 -2 -8 3 2 6 -14 22 -35 36 -38 26 -38 26 -31 4 8 -27 -4
-19 -21 14 -6 13 -17 22 -23 21 -7 -2 -12 2 -12 8 0 5 -4 7 -10 4 -5 -3 -10
-1 -10 5 0 6 -4 8 -10 5 -5 -3 -10 -1 -10 6 0 7 -3 10 -6 6 -4 -3 -13 1 -21 9
-14 13 -17 13 -34 -2 -11 -10 -19 -12 -19 -6 0 7 5 12 10 12 6 0 10 5 10 11 0
6 -7 8 -16 5 -8 -3 -13 -2 -10 2 2 4 -7 12 -20 19 -16 7 -22 8 -17 1 3 -6 1
-8 -5 -4 -6 3 -13 2 -17 -3 -9 -16 -44 -9 -37 8 4 10 7 11 10 3 2 -7 8 -12 13
-12 6 0 7 5 3 12 -4 7 -3 8 4 4 7 -4 12 -3 12 2 0 20 -40 20 -54 1 -12 -17
-14 -18 -20 -4 -3 9 -2 14 3 11 5 -3 11 0 14 8 4 9 -3 16 -19 20 -13 4 -25 5
-27 4 -2 -2 -11 5 -21 15 -10 9 -24 18 -32 18 -19 2 -24 3 -59 18 -16 7 -34
14 -40 15 -5 1 -20 7 -32 14 -27 15 -56 17 -33 2 10 -7 11 -10 2 -10 -7 0 -15
7 -19 16 -5 13 -7 13 -14 2 -6 -10 -9 -8 -9 7 0 17 -2 17 -10 5 -7 -11 -10
-11 -10 -2 0 7 -4 11 -9 8 -5 -3 -14 1 -21 9 -14 17 -40 20 -40 5 0 -5 -8 -10
-17 -9 -11 0 -13 3 -5 6 6 2 12 9 12 14 0 6 -5 7 -10 4 -5 -3 -16 -3 -22 2
-28 18 -77 30 -87 22 -6 -5 -9 -6 -6 -2 7 9 -63 33 -102 35 -18 1 -33 4 -33 8
0 15 -39 18 -44 3 -9 -23 -7 -26 8 -14 14 12 24 5 40 -29 6 -12 5 -12 -6 1 -8
10 -26 15 -45 13 -18 -1 -33 2 -33 7 0 6 4 8 9 5 5 -3 11 1 15 9 3 8 1 17 -4
20 -4 3 -11 -1 -13 -7 -3 -7 -6 -4 -6 7 -1 17 -3 17 -11 5 -5 -8 -10 -10 -10
-4 0 6 -6 11 -12 12 -23 2 -43 7 -55 15 -16 10 -17 -5 -1 -21 9 -9 9 -12 0
-12 -7 0 -12 5 -12 11 0 5 -5 7 -12 3 -8 -5 -9 -2 -5 9 4 12 1 17 -11 18 -9 0
-26 2 -37 4 -61 12 -88 10 -91 -8 -1 -11 -6 -22 -10 -25 -4 -4 -4 1 -1 10 3 9
1 19 -6 22 -9 3 -9 5 1 5 6 1 12 5 12 9 0 13 -54 8 -63 -6 -5 -7 -13 -9 -19
-6 -8 5 -9 1 -5 -10 4 -11 3 -15 -4 -11 -6 4 -8 13 -6 19 10 24 -9 34 -71 40
-50 5 -64 3 -68 -9 -6 -16 -24 -11 -24 6 0 6 5 7 10 4 6 -3 10 -2 10 3 0 5
-16 9 -35 10 -25 1 -34 -2 -30 -11 4 -7 1 -5 -7 3 -8 10 -29 15 -58 15 -25 -1
-50 2 -57 7 -7 6 -15 3 -22 -9 -10 -17 -10 -17 -11 1 0 19 -1 19 -13 2 -12
-16 -15 -16 -28 -4 -8 8 -21 15 -29 16 -146 11 -188 11 -199 -2 -9 -10 -8 -15
4 -20 9 -3 15 0 15 9 0 7 9 13 19 12 11 0 17 -5 15 -9 -3 -5 -9 -6 -14 -3 -4
3 -11 -2 -14 -10 -5 -13 -10 -14 -27 -5 -15 9 -18 15 -10 23 16 16 14 32 -2
18 -8 -6 -16 -8 -19 -6 -3 3 -15 7 -26 10 -16 3 -20 0 -16 -13 5 -14 3 -13
-10 2 -9 11 -18 17 -21 15 -8 -8 26 -50 35 -44 5 3 11 1 14 -4 9 -13 -19 -7
-38 8 -11 9 -16 10 -16 2 0 -6 -5 -11 -11 -11 -8 0 -8 4 1 15 17 20 6 32 -34
33 -22 1 -36 -4 -40 -13 -6 -17 9 -21 19 -5 3 6 11 10 18 10 6 0 1 -7 -11 -16
-26 -18 -44 -11 -35 14 6 15 5 16 -12 2 -10 -8 -16 -10 -12 -4 5 8 -16 12 -70
13 -41 1 -80 4 -84 7 -5 3 -9 -2 -9 -10 0 -9 -5 -16 -11 -16 -6 0 -9 6 -6 13
7 18 -75 16 -90 -3 -10 -13 -14 -12 -32 4 -13 12 -21 14 -21 7 0 -7 -5 -9 -11
-5 -7 4 -41 8 -76 9 -60 1 -63 0 -57 -19 4 -12 12 -25 18 -29 7 -6 4 -7 -7 -3
-10 3 -20 6 -23 6 -2 0 0 8 3 18 6 15 5 15 -10 3 -11 -9 -17 -10 -17 -2 0 6 5
11 10 11 6 0 10 3 10 8 0 4 -29 7 -64 7 -52 0 -63 -3 -59 -15 4 -13 3 -13 -9
0 -9 11 -34 15 -93 15 -68 0 -82 -3 -91 -19 -8 -13 -13 -15 -18 -7 -4 6 -2 11
3 11 6 0 11 4 11 8 0 4 -16 8 -35 8 -30 0 -34 -3 -30 -21 3 -11 2 -15 -1 -8
-3 7 -12 9 -20 6 -8 -3 -14 1 -14 8 0 10 -16 14 -59 14 -38 0 -57 -3 -53 -10
3 -5 -1 -4 -10 3 -13 10 -17 10 -21 0 -4 -8 -8 -9 -14 -3 -9 11 -74 14 -101 4z
m34 -35 c3 -16 2 -26 -1 -23 -3 4 -8 19 -11 35 -3 16 -2 26 1 23 3 -4 8 -19
11 -35z m59 -3 c-3 -5 0 -12 5 -14 6 -3 5 -4 -2 -3 -7 2 -11 12 -10 22 3 15 1
17 -9 7 -20 -20 -31 -15 -11 5 13 14 19 15 25 5 4 -7 6 -17 2 -22z m103 31
c10 7 14 8 10 4 -4 -5 -3 -15 3 -23 9 -9 8 -13 0 -13 -6 0 -11 6 -11 13 0 8
-4 7 -10 -3 -5 -8 -10 -12 -10 -8 0 3 -2 12 -3 20 -2 7 -2 9 1 5 2 -4 11 -2
20 5z m138 -13 c0 -10 -3 -16 -7 -13 -4 2 -9 -2 -12 -8 -2 -7 -4 -1 -3 13 1
28 22 36 22 8z m124 -24 c0 -5 -4 -4 -9 4 -5 8 -17 16 -26 17 -9 1 -20 6 -23
10 -4 4 1 4 11 1 10 -4 17 -2 17 5 0 7 7 3 15 -8 8 -10 14 -23 15 -29z m85 15
l20 -25 -22 19 c-13 11 -23 24 -23 29 0 6 1 8 3 6 1 -2 11 -15 22 -29z m102 3
c1 -22 -1 -24 -8 -10 -6 9 -7 22 -4 27 9 14 10 13 12 -17z m93 -17 c0 -6 -7
-1 -15 10 -8 10 -15 23 -15 28 0 6 7 1 15 -10 8 -10 15 -23 15 -28z m20 32 c0
-4 -4 -8 -9 -8 -6 0 -12 4 -15 8 -3 5 1 9 9 9 8 0 15 -4 15 -9z m-485 -24 c9
-1 20 -5 23 -8 8 -9 -30 -2 -45 7 -7 5 -13 14 -13 20 0 8 4 7 9 -2 5 -8 17
-16 26 -17z m112 1 c-4 -8 -12 -15 -19 -14 -10 0 -10 2 0 6 6 2 12 12 12 21 0
8 3 13 6 9 4 -3 4 -13 1 -22z m108 15 c-3 -5 1 -10 9 -10 8 0 18 -5 22 -12 4
-6 3 -9 -2 -6 -5 3 -17 8 -27 11 -15 6 -16 27 -1 27 3 0 2 -4 -1 -10z m97 -4
c7 4 8 2 4 -4 -11 -18 -26 -14 -25 6 0 10 3 12 6 4 2 -6 10 -9 15 -6z m192 -1
c3 -8 1 -15 -4 -15 -6 0 -10 7 -10 15 0 8 2 15 4 15 2 0 6 -7 10 -15z m294 1
c-2 -1 -10 -7 -19 -14 -13 -9 -16 -9 -16 3 0 8 4 12 9 9 4 -3 8 0 8 6 0 6 5 8
11 5 6 -4 9 -8 7 -9z m45 7 c-7 -2 -19 -2 -25 0 -7 3 -2 5 12 5 14 0 19 -2 13
-5z m128 -20 c-12 -20 -14 -14 -5 12 4 9 9 14 11 11 3 -2 0 -13 -6 -23z
m-1111 13 c0 -2 -7 -7 -16 -10 -8 -3 -12 -2 -9 4 6 10 25 14 25 6z m690 0 c0
-2 -7 -9 -15 -16 -13 -11 -14 -10 -9 4 5 14 24 23 24 12z m28 -8 c-2 -6 -10
-13 -16 -14 -7 -1 -8 0 -2 3 5 2 8 9 4 14 -3 5 0 9 6 9 7 0 10 -5 8 -12z m62
-11 c0 -8 -3 -8 -9 2 -6 9 -11 10 -15 2 -4 -6 -12 -11 -19 -11 -6 0 -2 6 8 14
21 15 35 12 35 -7z m50 13 c0 -5 -4 -10 -10 -10 -5 0 -10 5 -10 10 0 6 5 10
10 10 6 0 10 -4 10 -10z m60 0 c0 -5 -4 -10 -10 -10 -5 0 -10 5 -10 10 0 6 5
10 10 10 6 0 10 -4 10 -10z m130 -9 c0 -4 -6 -8 -14 -8 -8 0 -12 6 -9 14 5 13
23 9 23 -6z m197 -3 c2 -17 0 -19 -7 -8 -5 8 -6 18 -4 22 8 12 10 10 11 -14z
m158 12 c3 -5 1 -10 -4 -10 -6 0 -11 5 -11 10 0 6 2 10 4 10 3 0 8 -4 11 -10z
m-895 -10 c0 -5 -5 -10 -11 -10 -5 0 -7 5 -4 10 3 6 8 10 11 10 2 0 4 -4 4
-10z m475 0 c-3 -5 -12 -10 -18 -10 -7 0 -6 4 3 10 19 12 23 12 15 0z m383 3
c-10 -2 -18 -9 -18 -14 0 -5 -5 -9 -11 -9 -8 0 -8 5 1 15 7 8 20 14 29 14 13
-1 13 -2 -1 -6z m-1308 -16 c-3 -5 6 -15 20 -22 14 -8 21 -14 17 -15 -5 0 -17
5 -27 10 -15 8 -21 6 -29 -7 -6 -10 -11 -14 -11 -9 0 5 7 18 17 28 15 17 15
18 -6 18 -12 0 -20 -4 -16 -10 3 -5 -9 -16 -27 -25 -29 -14 -30 -14 -14 0 11
8 23 15 28 15 4 0 7 3 7 8 -3 18 3 23 24 20 12 -2 20 -7 17 -11z m70 3 c0 -5
-8 -10 -17 -10 -15 0 -16 2 -3 10 19 12 20 12 20 0z m1292 -12 c-7 -7 -12 -8
-12 -2 0 14 12 26 19 19 2 -3 -1 -11 -7 -17z m68 13 c0 -5 -7 -11 -14 -14 -10
-4 -13 -1 -9 9 6 15 23 19 23 5z m110 -23 c0 -5 -7 -3 -15 6 -8 8 -15 18 -15
22 0 3 7 1 15 -6 8 -7 15 -17 15 -22z m63 19 c-3 -5 -14 -7 -24 -4 -13 3 -19
0 -19 -11 0 -8 -3 -13 -6 -9 -13 13 4 32 29 32 14 0 23 -4 20 -8z m-278 -7
c-3 -5 -12 -10 -18 -10 -7 0 -6 4 3 10 19 12 23 12 15 0z m295 -10 c-24 -15
-36 -11 -14 4 10 8 21 12 24 10 2 -3 -2 -9 -10 -14z m54 9 c-3 -6 0 -15 7 -20
9 -6 10 -9 2 -9 -15 0 -26 17 -18 30 3 6 8 10 11 10 3 0 2 -5 -2 -11z m-1764
-9 c0 -5 -7 -6 -17 -3 -11 4 -14 3 -9 -5 4 -7 2 -12 -3 -12 -12 0 -14 13 -4
23 10 10 33 8 33 -3z m198 -9 c-7 -9 -13 -18 -15 -20 -1 -2 -1 5 0 16 0 11 7
20 14 20 10 0 10 -4 1 -16z m52 13 c0 -8 -19 -13 -24 -6 -3 5 1 9 9 9 8 0 15
-2 15 -3z m47 -9 c4 -4 2 -5 -4 -1 -7 4 -13 3 -13 -2 0 -5 -10 -12 -22 -15
-21 -5 -21 -5 -6 7 10 7 15 16 12 19 -3 3 1 4 10 3 8 -1 19 -6 23 -11z m182
-7 c-10 -19 -21 -23 -32 -11 -9 9 10 30 27 30 11 0 13 -5 5 -19z m34 7 c-3 -9
-8 -14 -10 -11 -3 3 -2 9 2 15 9 16 15 13 8 -4z m1067 11 c0 -3 -4 -8 -10 -11
-5 -3 -10 -1 -10 4 0 6 5 11 10 11 6 0 10 -2 10 -4z m275 -35 c-4 -3 -11 1
-16 9 -8 11 -12 12 -16 3 -2 -7 -9 -13 -14 -13 -5 0 -4 9 3 20 11 18 14 18 30
3 10 -9 16 -19 13 -22z m25 29 c0 -5 -5 -10 -11 -10 -5 0 -7 5 -4 10 3 6 8 10
11 10 2 0 4 -4 4 -10z m-1713 -6 c-3 -3 -12 -4 -19 -1 -8 3 -5 6 6 6 11 1 17
-2 13 -5z m439 -6 c-10 -6 -22 -6 -26 -2 -5 5 3 10 18 11 22 1 24 0 8 -9z m46
-10 c-7 -7 -12 -8 -12 -2 0 14 12 26 19 19 2 -3 -1 -11 -7 -17z m56 14 c15 11
15 11 5 -3 -7 -9 -9 -20 -5 -25 4 -4 -1 -2 -10 5 -10 7 -18 19 -17 25 0 6 3 6
6 -2 4 -10 8 -10 21 0z m1210 -1 c11 -7 10 -9 -3 -14 -9 -4 -14 -3 -10 2 3 5
-1 12 -7 14 -7 3 -8 6 -3 6 6 0 16 -3 23 -8z m-1698 -11 c0 -5 -5 -10 -11 -10
-5 0 -7 5 -4 10 3 6 8 10 11 10 2 0 4 -4 4 -10z m560 6 c0 -3 -4 -8 -10 -11
-5 -3 -10 -1 -10 4 0 6 5 11 10 11 6 0 10 -2 10 -4z m40 -6 c0 -5 -2 -10 -4
-10 -3 0 -8 5 -11 10 -3 6 -1 10 4 10 6 0 11 -4 11 -10z m120 -15 c-7 -8 -17
-15 -23 -15 -6 0 -2 7 9 15 25 19 30 19 14 0z m1065 -4 c-8 -14 -25 -14 -25 0
0 5 5 7 10 4 6 -3 10 -1 10 6 0 7 3 10 6 6 3 -3 3 -10 -1 -16z m70 9 c-4 -7 3
-9 20 -6 17 3 28 0 32 -10 3 -7 8 -12 12 -10 4 3 13 1 20 -4 9 -5 3 -7 -17 -7
-17 1 -28 6 -25 13 2 7 -7 11 -23 10 -15 0 -29 5 -31 12 -3 6 0 12 7 12 6 0 8
-5 5 -10z m-1218 -22 c-3 -8 -6 -5 -6 6 -1 11 2 17 5 13 3 -3 4 -12 1 -19z
m33 18 c0 -3 -4 -8 -10 -11 -5 -3 -10 -1 -10 4 0 6 5 11 10 11 6 0 10 -2 10
-4z m100 -8 c0 -4 -4 -8 -9 -8 -6 0 -12 4 -15 8 -3 5 1 9 9 9 8 0 15 -4 15 -9z
m83 -13 c-3 -9 -8 -14 -10 -11 -3 3 -2 9 2 15 9 16 15 13 8 -4z m-39 -10 c11
-8 15 -15 10 -15 -6 0 -19 7 -30 15 -10 8 -14 14 -9 14 6 0 19 -6 29 -14z
m104 -10 c2 -1 -4 -5 -13 -9 -9 -3 -14 -2 -11 3 3 5 -1 11 -9 15 -8 3 -15 0
-15 -6 0 -6 -3 -9 -6 -5 -3 3 -3 10 1 16 5 9 34 2 53 -14z m1099 -4 c0 -11 -5
-18 -9 -15 -4 3 -5 11 -1 19 7 21 12 19 10 -4z m-1000 3 c-3 -3 -12 -4 -19 -1
-8 3 -5 6 6 6 11 1 17 -2 13 -5z m42 -28 c-3 -3 -11 5 -18 17 -13 21 -12 21 5
5 10 -10 16 -20 13 -22z m999 21 c14 4 14 3 2 -5 -16 -12 -30 -7 -29 11 0 9 2
9 5 0 3 -7 13 -9 22 -6z m-1066 -11 c7 4 8 2 4 -5 -9 -13 -26 -5 -25 12 0 9 2
8 6 -1 2 -6 10 -9 15 -6z m47 -19 c0 -9 -2 -8 -6 1 -2 6 -10 9 -15 6 -7 -4 -8
-2 -4 5 9 13 26 5 25 -12z m72 -9 c-10 -11 -11 -9 -5 6 6 16 5 17 -17 7 -23
-12 -23 -11 -5 3 24 19 48 4 27 -16z m1076 0 c-3 -8 -6 -5 -6 6 -1 11 2 17 5
13 3 -3 4 -12 1 -19z m65 8 c7 4 8 2 4 -4 -11 -18 -26 -14 -25 6 0 10 3 12 6
4 2 -6 10 -9 15 -6z m24 -15 c-4 -5 -1 -11 6 -13 8 -3 6 -6 -4 -10 -11 -5 -15
-2 -13 10 5 23 4 22 11 22 3 0 3 -4 0 -9z m-1081 -11 c-3 -5 -11 -10 -16 -10
-6 0 -7 5 -4 10 3 6 11 10 16 10 6 0 7 -4 4 -10z m1030 0 c3 -6 -1 -7 -9 -4
-18 7 -21 14 -7 14 6 0 13 -4 16 -10z m110 -1 c4 -6 13 -8 21 -5 7 3 16 0 20
-6 4 -7 3 -8 -5 -4 -6 4 -14 0 -18 -10 -6 -15 -7 -15 -14 4 -5 12 -14 22 -20
22 -8 0 -9 -4 0 -13 8 -10 7 -14 -3 -14 -11 0 -14 12 -7 35 2 6 21 1 26 -9z
m-1078 -16 c0 -17 -5 -16 -23 1 -12 13 -12 15 4 13 10 0 19 -7 19 -14z m59 -9
c19 -15 19 -15 -1 -6 -11 5 -27 12 -35 15 -13 5 -13 6 1 6 8 1 24 -6 35 -15z
m60 -22 c-10 -2 -22 0 -28 6 -6 6 0 7 19 4 21 -5 23 -7 9 -10z m1018 9 c4 -5
-3 -7 -14 -4 -23 6 -26 13 -6 13 8 0 17 -4 20 -9z m66 0 c0 -5 -7 -11 -14 -14
-10 -4 -13 -1 -9 9 6 15 23 19 23 5z m-1105 -29 c-3 -3 -11 0 -18 7 -9 10 -8
11 6 5 10 -3 15 -9 12 -12z m60 9 c3 -6 -5 -15 -17 -21 -21 -10 -21 -10 -6 3
10 8 15 17 11 20 -3 4 -4 7 0 7 3 0 8 -4 12 -9z m1085 -1 c8 -5 11 -10 5 -10
-5 0 -17 5 -25 10 -8 5 -10 10 -5 10 6 0 17 -5 25 -10z m40 -18 c0 -5 -7 -9
-15 -9 -8 0 -12 4 -9 9 3 4 9 8 15 8 5 0 9 -4 9 -8z m51 -5 c-6 -8 -8 -16 -5
-20 3 -3 -5 -3 -18 1 -18 5 -19 7 -5 10 9 2 17 8 17 13 0 5 5 9 11 9 8 0 9 -4
0 -13z m-1117 -22 c-4 -8 -8 -15 -10 -15 -2 0 -4 7 -4 15 0 8 4 15 10 15 5 0
7 -7 4 -15z m1166 5 c0 -5 -4 -10 -10 -10 -5 0 -10 5 -10 10 0 6 5 10 10 10 6
0 10 -4 10 -10z m-1127 -13 c-4 -7 1 -8 13 -3 15 6 16 5 7 -5 -9 -9 -16 -9
-26 -1 -8 7 -18 8 -22 4 -5 -4 -5 -2 -2 4 3 6 13 11 21 11 8 0 12 -5 9 -10z
m1157 -12 c-13 -15 -35 -11 -24 6 3 5 10 7 15 4 5 -4 9 -1 9 6 0 7 3 9 6 6 4
-4 1 -13 -6 -22z m76 -32 c-3 -4 -6 -1 -6 6 0 7 -4 9 -10 6 -6 -4 -7 1 -3 11
6 15 7 15 15 -1 6 -9 7 -19 4 -22z m-1159 14 c7 0 10 -4 7 -9 -3 -4 0 -8 7 -8
7 0 10 -2 7 -6 -3 -3 -21 5 -39 17 -19 11 -25 18 -14 14 11 -4 25 -8 32 -8z
m1113 9 c0 -3 -4 -8 -10 -11 -5 -3 -10 -1 -10 4 0 6 5 11 10 11 6 0 10 -2 10
-4z m100 -20 c0 -3 -4 -8 -10 -11 -5 -3 -10 -1 -10 4 0 6 5 11 10 11 6 0 10
-2 10 -4z m-1145 -26 c3 -5 1 -10 -4 -10 -6 0 -11 5 -11 10 0 6 2 10 4 10 3 0
8 -4 11 -10z m1265 -40 c0 -5 -4 -10 -10 -10 -5 0 -10 5 -10 10 0 6 5 10 10
10 6 0 10 -4 10 -10z m-1189 -14 c5 3 9 0 9 -6 0 -15 -23 -7 -26 8 -1 7 0 8 3
2 2 -5 9 -8 14 -4z m1259 -16 c6 -11 7 -20 2 -20 -6 0 -12 9 -15 20 -3 11 -3
20 -1 20 2 0 8 -9 14 -20z m-1222 -7 c-10 -2 -18 -9 -18 -15 0 -6 -3 -9 -6 -5
-10 10 6 27 24 26 15 -1 15 -2 0 -6z m22 -17 c0 -2 -7 -6 -15 -10 -8 -3 -15
-1 -15 4 0 6 7 10 15 10 8 0 15 -2 15 -4z m1246 -19 c1 -9 -2 -15 -7 -11 -5 3
-6 10 -3 16 5 8 1 9 -10 5 -11 -4 -15 -3 -11 4 10 14 28 6 31 -14z m-1199 -10
c2 -3 -8 -4 -22 -4 -14 0 -28 4 -31 9 -5 8 44 4 53 -5z m1248 5 c-2 -3 1 -14
7 -26 9 -18 9 -19 -3 -6 -8 8 -20 20 -28 27 -11 10 -10 12 7 10 12 0 19 -3 17
-5z m-1219 -24 c4 -7 3 -8 -4 -4 -7 4 -12 2 -12 -5 0 -7 -3 -10 -6 -6 -6 5 3
27 11 27 2 0 7 -5 11 -12z m1284 -18 c-8 -5 -22 -9 -30 -9 -10 0 -8 3 5 9 27
12 43 12 25 0z m-1255 -9 c3 -5 0 -13 -6 -17 -7 -4 -9 -3 -5 4 3 5 0 13 -6 15
-9 4 -10 6 -1 6 6 1 14 -3 18 -8z m-31 -17 c5 -14 4 -15 -9 -4 -17 14 -19 20
-6 20 5 0 12 -7 15 -16z m1301 6 c-3 -5 -11 -10 -16 -10 -6 0 -7 5 -4 10 3 6
11 10 16 10 6 0 7 -4 4 -10z m-1248 -15 c0 -8 -4 -12 -9 -9 -4 3 -8 0 -8 -7 0
-7 -3 -9 -6 -6 -4 4 -1 13 6 22 15 19 17 19 17 0z m1298 -5 c-7 -11 -45 -9
-45 3 0 5 10 5 21 2 16 -5 19 -4 14 5 -5 9 -4 11 4 6 6 -4 9 -11 6 -16z
m-1235 -65 c0 -5 -5 -3 -10 5 -5 8 -10 20 -10 25 0 6 5 3 10 -5 5 -8 10 -19
10 -25z m1328 -6 c3 -11 1 -11 -6 -1 -5 7 -17 10 -28 6 -16 -5 -16 -4 -4 5 18
13 32 10 38 -10z m-1303 -9 c3 -5 1 -10 -4 -10 -6 0 -11 5 -11 10 0 6 2 10 4
10 3 0 8 -4 11 -10z m17 -27 c-6 -2 -10 -9 -7 -13 3 -5 0 -12 -6 -16 -8 -4 -9
-3 -5 4 4 7 1 12 -6 12 -9 0 -9 3 2 10 8 5 20 9 25 9 6 0 4 -3 -3 -6z m1353
-13 c-3 -5 -1 -10 6 -10 7 0 10 -2 7 -5 -3 -3 -13 -2 -22 1 -14 5 -15 9 -4 15
17 11 20 11 13 -1z m50 -49 c-6 -5 -25 10 -25 20 0 5 6 4 14 -3 8 -7 12 -15
11 -17z m-1340 -31 c-3 -5 -12 -10 -18 -10 -7 0 -6 4 3 10 19 12 23 12 15 0z
m1451 -21 c3 -6 -6 -3 -21 7 l-28 18 7 -24 c6 -21 5 -22 -4 -7 -15 24 -4 40
20 27 10 -6 22 -15 26 -21z m-1450 -17 c-18 -16 -18 -16 -6 6 6 13 14 21 18
18 3 -4 -2 -14 -12 -24z m48 -25 c7 -6 6 -7 -4 -4 -8 2 -16 12 -17 23 -2 13
-1 15 4 4 3 -8 11 -19 17 -23z m1421 23 c-3 -5 -12 -10 -18 -10 -7 0 -6 4 3
10 19 12 23 12 15 0z m-1440 -41 c11 -16 1 -19 -13 -3 -7 8 -8 14 -3 14 5 0
13 -5 16 -11z m23 -24 c-6 -14 -13 -23 -15 -21 -5 5 15 46 22 46 3 0 -1 -11
-7 -25z m1479 -27 c-3 -7 -5 -2 -5 12 0 14 2 19 5 13 2 -7 2 -19 0 -25z
m-1457 -9 c0 -5 4 -8 8 -5 4 2 8 -4 8 -15 0 -24 0 -24 -20 6 -9 14 -12 25 -6
25 5 0 10 -5 10 -11z m1496 2 c-3 -5 1 -12 10 -15 8 -3 13 -10 9 -15 -3 -5 4
-12 15 -14 17 -4 17 -4 -2 -3 -13 1 -22 7 -21 13 2 7 -7 15 -19 18 -16 6 -18
9 -7 16 18 11 22 11 15 0z m-1463 -61 c-7 -26 -19 -34 -29 -19 -5 8 -3 9 6 4
10 -6 12 -4 7 8 -3 9 -1 18 6 21 7 2 13 5 14 5 0 1 -1 -8 -4 -19z m1555 -30
c-7 -10 -14 -18 -15 -16 -6 6 9 36 18 36 5 0 4 -9 -3 -20z m-1533 -10 c3 -6
-1 -7 -9 -4 -18 7 -21 14 -7 14 6 0 13 -4 16 -10z m1582 -41 c2 -22 1 -22 -5
-3 -4 13 -14 20 -24 18 -10 -1 -18 2 -18 7 0 5 10 7 23 5 15 -2 23 -10 24 -27z
m-1568 18 c-2 -1 -13 -9 -24 -17 -19 -14 -19 -14 -6 3 7 9 18 17 24 17 6 0 8
-1 6 -3z m5 -35 c2 -4 1 -14 -4 -22 -7 -11 -12 -12 -21 -3 -6 6 -8 16 -5 22 8
13 23 14 30 3z m1618 -28 c16 -9 16 -11 -5 -23 -20 -13 -21 -13 -9 1 10 13 10
17 -3 22 -8 3 -15 11 -15 18 0 9 3 9 8 2 4 -6 15 -15 24 -20z m-1612 -34 c12
-7 10 -9 -8 -7 -12 0 -22 5 -22 9 0 11 12 10 30 -2z m1640 -20 c0 -5 -5 -10
-11 -10 -5 0 -7 5 -4 10 3 6 8 10 11 10 2 0 4 -4 4 -10z m37 -21 c2 -18 1 -20
-6 -9 -5 8 -8 17 -5 21 2 4 -1 10 -6 12 -6 3 -5 4 1 3 7 -1 14 -13 16 -27z
m57 -69 c-6 -5 -24 21 -24 34 0 6 6 1 14 -10 8 -10 12 -21 10 -24z m-1700 -32
c-3 -5 -11 -8 -17 -7 -9 0 -9 2 0 5 7 3 9 12 6 20 -3 7 -9 11 -14 8 -5 -3 -6
2 -2 12 5 14 8 13 19 -7 7 -13 10 -27 8 -31z m1728 8 c7 4 8 2 4 -5 -9 -13
-26 -5 -25 12 0 9 2 8 6 -1 2 -6 10 -9 15 -6z m18 -46 c0 -5 -4 -10 -10 -10
-5 0 -10 5 -10 10 0 6 5 10 10 10 6 0 10 -4 10 -10z m-1725 -10 c3 -5 1 -10
-4 -10 -6 0 -11 5 -11 10 0 6 2 10 4 10 3 0 8 -4 11 -10z m1747 -7 c-6 -2 -10
-9 -7 -13 3 -5 1 -11 -4 -14 -7 -5 -8 11 -2 32 1 1 7 2 14 1 9 0 9 -2 -1 -6z
m-1742 -30 c0 -3 -7 -3 -15 1 -8 3 -15 0 -15 -6 0 -6 -3 -9 -6 -5 -11 10 6 26
21 20 8 -3 15 -7 15 -10z m1784 -28 c-4 -8 -11 -15 -16 -15 -6 0 -4 8 3 17 12
15 12 16 -3 10 -18 -6 -33 5 -21 16 11 11 42 -13 37 -28z m-1784 11 c0 -3 -4
-8 -10 -11 -5 -3 -10 -1 -10 4 0 6 5 11 10 11 6 0 10 -2 10 -4z m1805 -56 c-3
-6 -12 -10 -18 -9 -9 0 -9 2 1 6 6 2 12 9 12 14 0 6 -4 7 -10 4 -6 -4 -7 1 -3
11 5 15 7 15 15 0 5 -9 6 -21 3 -26z m-1795 4 c0 -3 -5 -2 -11 2 -6 3 -15 0
-20 -7 -6 -10 -8 -8 -6 8 1 17 5 20 19 12 10 -5 18 -12 18 -15z m-6 -22 c2 -4
-5 -9 -17 -9 -17 -2 -19 0 -7 7 18 12 18 12 24 2z m1826 4 c0 -2 -7 -7 -16
-10 -8 -3 -12 -2 -9 4 6 10 25 14 25 6z m20 -45 c3 -12 10 -22 15 -21 6 1 11
-6 13 -14 2 -9 -1 -16 -7 -16 -6 0 -7 8 -4 18 6 15 5 15 -11 3 -9 -8 -16 -10
-15 -5 4 25 -2 54 -11 49 -5 -3 -10 -1 -10 5 0 20 24 5 30 -19z m-1860 -1 c-8
-5 -17 -7 -19 -4 -3 3 1 9 9 14 8 5 17 7 19 4 3 -3 -1 -9 -9 -14z m17 -32 c0
-13 -1 -17 -4 -10 -3 6 -12 12 -21 13 -14 0 -13 2 3 9 11 5 20 9 20 9 1 1 1
-9 2 -21z m-24 -23 c-3 -9 -8 -14 -10 -11 -3 3 -2 9 2 15 9 16 15 13 8 -4z
m1917 -4 c0 -14 -29 -21 -36 -9 -4 6 -3 8 4 4 6 -3 13 -2 17 4 8 12 15 13 15
1z m-1903 -27 c-3 -3 -12 -4 -19 -1 -8 3 -5 6 6 6 11 1 17 -2 13 -5z m1923
-29 c0 -5 -5 -3 -10 5 -5 8 -10 20 -10 25 0 6 5 3 10 -5 5 -8 10 -19 10 -25z
m-1905 -25 c3 -5 1 -10 -4 -10 -6 0 -11 5 -11 10 0 6 2 10 4 10 3 0 8 -4 11
-10z m1939 -13 c4 4 4 -1 0 -11 -7 -17 -8 -17 -19 3 -6 12 -15 18 -20 14 -4
-4 -5 -2 0 6 7 12 10 11 20 -2 7 -9 15 -14 19 -10z m-1954 -18 c0 -6 -4 -7
-10 -4 -5 3 -10 11 -10 16 0 6 5 7 10 4 6 -3 10 -11 10 -16z m1970 -29 c8 -5
11 -10 5 -10 -5 0 -17 5 -25 10 -8 5 -10 10 -5 10 6 0 17 -5 25 -10z m-1970
-30 c0 -5 -2 -10 -4 -10 -3 0 -8 5 -11 10 -3 6 -1 10 4 10 6 0 11 -4 11 -10z
m2000 0 c0 -5 -4 -10 -10 -10 -5 0 -10 5 -10 10 0 6 5 10 10 10 6 0 10 -4 10
-10z m20 -24 c0 -3 -4 -8 -10 -11 -5 -3 -10 -1 -10 4 0 6 5 11 10 11 6 0 10
-2 10 -4z m-2035 -16 c-3 -5 -2 -10 3 -10 6 0 13 -8 16 -17 6 -15 5 -15 -13 1
-18 16 -20 36 -5 36 3 0 2 -4 -1 -10z m2045 -10 c0 -5 -5 -10 -11 -10 -5 0 -7
5 -4 10 3 6 8 10 11 10 2 0 4 -4 4 -10z m17 -26 c-3 -3 -12 -4 -19 -1 -8 3 -5
6 6 6 11 1 17 -2 13 -5z m-2052 -23 c3 -5 0 -13 -6 -17 -7 -4 -9 -3 -5 4 3 5
0 13 -6 15 -9 4 -10 6 -1 6 6 1 14 -3 18 -8z m2038 -6 c-3 -9 -8 -14 -10 -11
-3 3 -2 9 2 15 9 16 15 13 8 -4z m25 -66 c-3 -8 -7 -3 -11 10 -4 17 -3 21 5
13 5 -5 8 -16 6 -23z m-2083 -7 c-3 -3 -11 0 -18 7 -9 10 -8 11 6 5 10 -3 15
-9 12 -12z m5 -19 c7 7 5 0 -6 -15 -20 -28 -34 -36 -34 -18 0 6 5 10 12 10 9
0 9 3 0 12 -7 7 -12 17 -12 23 0 5 6 2 14 -7 10 -14 15 -15 26 -5z m2107 -19
c-4 -15 -5 -14 -6 4 -1 15 -5 21 -13 16 -7 -5 -8 -3 -3 5 10 18 28 -2 22 -25z
m33 -4 c0 -5 -5 -10 -11 -10 -5 0 -7 5 -4 10 3 6 8 10 11 10 2 0 4 -4 4 -10z
m10 -45 c0 -7 -30 -13 -34 -7 -3 4 4 9 15 9 10 1 19 0 19 -2z m-2185 -25 c-3
-5 -12 -10 -18 -10 -7 0 -6 4 3 10 19 12 23 12 15 0z m2195 6 c0 -2 -7 -7 -16
-10 -8 -3 -12 -2 -9 4 6 10 25 14 25 6z m-2192 -41 c-6 -14 -13 -23 -15 -21
-5 5 15 46 22 46 3 0 -1 -11 -7 -25z m2227 -55 c-3 -5 -1 -10 6 -10 7 0 10 -3
6 -6 -9 -9 -28 6 -22 17 4 5 8 9 11 9 3 0 2 -4 -1 -10z m-2242 -15 c-3 -9 -8
-14 -10 -11 -3 3 -2 9 2 15 9 16 15 13 8 -4z m2242 -35 c3 -5 1 -10 -4 -10 -6
0 -11 5 -11 10 0 6 2 10 4 10 3 0 8 -4 11 -10z m38 -25 c4 -8 1 -17 -5 -21 -7
-4 -8 -3 -4 4 4 7 2 12 -3 12 -6 0 -11 5 -11 10 0 15 17 12 23 -5z m-2338 -27
c-9 -6 -19 -7 -22 -4 -4 3 -1 6 6 6 7 0 9 4 6 10 -4 6 1 7 11 3 15 -6 15 -7
-1 -15z m2335 -14 c0 -2 -7 -4 -15 -4 -8 0 -15 4 -15 10 0 5 7 7 15 4 8 -4 15
-8 15 -10z m-2333 -28 c0 -8 -6 -12 -15 -9 -11 5 -11 7 0 14 7 5 13 9 14 9 0
0 1 -6 1 -14z m2334 -9 c-10 -9 -11 -8 -5 6 3 10 9 15 12 12 3 -3 0 -11 -7
-18z m-2369 -42 c-18 -23 -21 -24 -19 -6 0 11 4 18 8 15 4 -2 10 3 13 12 4 9
9 14 12 11 4 -3 -3 -18 -14 -32z m2398 25 c0 -5 -5 -10 -11 -10 -5 0 -7 -5 -3
-12 4 -7 3 -8 -4 -4 -6 4 -9 13 -5 21 6 17 23 20 23 5z m20 -41 c0 -6 -4 -7
-10 -4 -5 3 -10 11 -10 16 0 6 5 7 10 4 6 -3 10 -11 10 -16z m-2445 -20 c11
-16 1 -19 -13 -3 -7 8 -8 14 -3 14 5 0 13 -5 16 -11z m2445 -18 c0 -5 -7 -12
-16 -15 -14 -5 -15 -4 -4 9 14 17 20 19 20 6z m-2484 -20 c-4 -5 -1 -12 4 -14
6 -3 5 -4 -2 -3 -15 3 -23 26 -8 26 6 0 9 -4 6 -9z m34 -1 c0 -5 -2 -10 -4
-10 -3 0 -8 5 -11 10 -3 6 -1 10 4 10 6 0 11 -4 11 -10z m2443 -35 c-3 -9 -8
-14 -10 -11 -3 3 -2 9 2 15 9 16 15 13 8 -4z m-2482 -18 c-10 -9 -11 -8 -5 6
3 10 9 15 12 12 3 -3 0 -11 -7 -18z m2526 -22 c1 0 -8 -7 -20 -14 -20 -13 -21
-13 -8 2 9 11 10 17 2 17 -6 0 -11 5 -11 11 0 8 6 7 18 -2 9 -7 18 -14 19 -14z
m-2542 5 c3 -5 1 -10 -4 -10 -6 0 -11 5 -11 10 0 6 2 10 4 10 3 0 8 -4 11 -10z
m-25 -40 c-6 -11 -13 -20 -16 -20 -2 0 0 9 6 20 6 11 13 20 16 20 2 0 0 -9 -6
-20z m-40 -50 c-8 -5 -22 -9 -30 -9 -10 0 -8 3 5 9 27 12 43 12 25 0z m2610 6
c0 -2 -7 -7 -16 -10 -8 -3 -12 -2 -9 4 6 10 25 14 25 6z m-2667 -21 c-3 -9 -8
-14 -10 -11 -3 3 -2 9 2 15 9 16 15 13 8 -4z m7 -34 c-6 -12 -15 -19 -20 -16
-5 3 -10 -3 -13 -12 -3 -14 -4 -13 -3 2 1 11 7 19 13 18 7 -2 15 7 18 18 4 11
9 18 12 16 2 -3 0 -15 -7 -26z m2660 9 c0 -5 -2 -10 -4 -10 -3 0 -8 5 -11 10
-3 6 -1 10 4 10 6 0 11 -4 11 -10z m-2713 -41 c0 -21 -3 -26 -9 -16 -4 9 -5
22 -2 31 9 23 11 20 11 -15z m2743 20 c0 -5 -4 -8 -9 -4 -5 3 -12 1 -16 -5 -3
-5 2 -10 11 -10 10 0 15 -3 11 -6 -3 -4 -14 -4 -23 0 -13 5 -14 9 -4 21 14 17
30 20 30 4z m7 -61 c-3 -8 -6 -5 -6 6 -1 11 2 17 5 13 3 -3 4 -12 1 -19z
m-2774 5 c-7 -2 -13 -9 -13 -14 0 -6 5 -7 12 -3 7 5 8 3 3 -5 -5 -9 -11 -9
-17 -3 -12 12 -2 32 15 31 9 0 9 -2 0 -6z m-33 -8 c0 -2 -10 -9 -22 -15 -22
-11 -22 -10 -4 4 21 17 26 19 26 11z m10 -29 c0 -3 -4 -8 -10 -11 -5 -3 -10
-1 -10 4 0 6 5 11 10 11 6 0 10 -2 10 -4z m2795 -14 c-3 -3 -11 0 -18 7 -9 10
-8 11 6 5 10 -3 15 -9 12 -12z m-2821 -8 c3 -8 2 -12 -4 -9 -6 3 -10 10 -10
16 0 14 7 11 14 -7z m-28 -26 c-9 -5 -23 -5 -32 0 -12 6 -7 9 16 9 23 0 28 -3
16 -9z m2864 -18 c13 -8 13 -10 -2 -10 -9 0 -20 5 -23 10 -8 13 5 13 25 0z
m10 -40 c0 -5 -7 -7 -15 -4 -8 4 -15 8 -15 10 0 2 7 4 15 4 8 0 15 -4 15 -10z
m-2966 -15 c-4 -8 -10 -13 -14 -10 -5 3 -10 0 -12 -7 -3 -7 -7 -5 -11 6 -4 9
-3 15 1 12 4 -2 14 -1 22 5 20 12 20 11 14 -6z m-62 -27 c-6 -6 -12 -6 -17 3
-5 8 -4 10 3 5 7 -4 12 0 13 11 0 12 2 13 6 5 3 -8 1 -18 -5 -24z m3021 1 c-8
-8 -13 -7 -18 2 -5 8 -4 10 3 5 7 -4 12 -2 12 5 0 7 3 9 7 6 4 -4 2 -12 -4
-18z m15 -20 c-9 -5 -15 -16 -12 -24 4 -8 10 -12 15 -9 5 3 6 -2 2 -12 -5 -14
-8 -13 -19 7 -13 25 -3 49 20 49 6 0 3 -5 -6 -11z m-3088 -29 c0 -5 -7 -6 -17
-3 -11 4 -14 3 -9 -5 4 -7 2 -12 -3 -12 -12 0 -14 13 -4 23 10 10 33 8 33 -3z
m-90 -50 c8 -5 11 -10 5 -10 -5 0 -17 5 -25 10 -8 5 -10 10 -5 10 6 0 17 -5
25 -10z m-70 -45 c0 -5 -5 -3 -10 5 -5 8 -10 20 -10 25 0 6 5 3 10 -5 5 -8 10
-19 10 -25z m-40 5 c-8 -5 -19 -10 -25 -10 -5 0 -3 5 5 10 8 5 20 10 25 10 6
0 3 -5 -5 -10z m8 -24 c-10 -7 -15 -16 -11 -20 4 -4 0 -4 -10 0 -17 6 -17 7 0
20 10 7 23 13 28 13 6 0 2 -6 -7 -13z m3287 -5 c3 -5 2 -12 -3 -15 -5 -3 -9 1
-9 9 0 17 3 19 12 6z m-3279 -57 c-3 -8 1 -14 9 -14 8 0 15 -5 15 -10 0 -7 -6
-7 -20 0 -13 7 -17 16 -13 28 6 15 3 14 -18 -3 l-24 -20 19 22 c19 23 41 21
32 -3z m3304 -4 c0 -5 -4 -10 -10 -10 -5 0 -10 5 -10 10 0 6 5 10 10 10 6 0
10 -4 10 -10z m-3231 -14 c9 -11 9 -16 0 -22 -7 -4 -9 -3 -5 4 3 6 2 13 -4 17
-5 3 -10 -2 -10 -11 0 -10 -3 -15 -6 -11 -6 6 2 37 9 37 3 0 10 -6 16 -14z
m70 -28 c-12 -23 -20 -24 -12 0 6 15 5 16 -13 2 -17 -14 -18 -13 -7 1 18 23
45 21 32 -3z m3165 10 c-6 -9 -44 -6 -44 3 0 4 11 6 24 5 13 0 22 -4 20 -8z
m-3123 -18 c6 0 7 5 3 12 -5 7 -3 8 5 3 9 -5 9 -11 3 -17 -12 -12 -32 -2 -31
15 0 9 2 9 6 0 2 -7 9 -13 14 -13z m64 -8 c-3 -3 -11 0 -18 7 -9 10 -8 11 6 5
10 -3 15 -9 12 -12z m3055 -36 c0 -12 -5 -7 -19 24 -11 24 -11 24 3 6 9 -11
16 -24 16 -30z m-3076 18 c5 -13 4 -14 -7 -6 -8 7 -18 8 -22 4 -5 -4 -5 -1 -1
6 10 17 23 15 30 -4z m41 6 c-3 -5 -12 -10 -18 -10 -7 0 -6 4 3 10 19 12 23
12 15 0z m19 -14 c-3 -9 -10 -16 -15 -16 -5 0 -4 9 3 20 14 22 21 20 12 -4z
m61 -36 l20 -25 -22 19 c-13 11 -23 24 -23 29 0 6 1 8 3 6 1 -2 11 -15 22 -29z
m60 2 c-3 -3 -11 0 -18 7 -9 10 -8 11 6 5 10 -3 15 -9 12 -12z m61 -23 c6 -5
13 -8 15 -6 2 1 0 -2 -5 -8 -5 -7 -10 -6 -13 3 -3 6 -11 12 -18 12 -8 0 -17 4
-20 10 -7 11 23 3 41 -11z m2834 13 c0 -5 -7 -9 -15 -9 -8 0 -12 4 -9 9 3 4 9
8 15 8 5 0 9 -4 9 -8z m-2883 -18 c-3 -3 -12 -4 -19 -1 -8 3 -5 6 6 6 11 1 17
-2 13 -5z m98 -13 c3 -6 -4 -15 -15 -21 -13 -7 -20 -7 -20 0 0 5 7 10 16 10 8
0 12 5 9 10 -3 6 -4 10 -1 10 3 0 7 -4 11 -9z m2785 -10 c0 -6 -4 -12 -8 -15
-5 -3 -9 1 -9 9 0 8 4 15 9 15 4 0 8 -4 8 -9z m-2725 -21 c3 -5 1 -10 -4 -10
-6 0 -11 5 -11 10 0 6 2 10 4 10 3 0 8 -4 11 -10z m2741 -10 c0 -12 -4 -16 -9
-11 -5 5 -6 14 -3 20 10 15 12 14 12 -9z m-2696 -26 c0 -8 5 -14 10 -14 6 0
10 -5 10 -11 0 -8 -5 -8 -15 1 -8 7 -15 19 -15 27 0 11 -5 11 -22 3 -22 -11
-22 -10 -4 4 21 17 36 13 36 -10z m2694 -53 c-2 -3 -12 3 -22 13 -16 17 -16
18 5 5 12 -7 20 -15 17 -18z m-2644 9 c-8 -5 -19 -10 -25 -10 -5 0 -3 5 5 10
8 5 20 10 25 10 6 0 3 -5 -5 -10z m44 -19 c-5 -5 -18 -5 -29 0 -18 9 -18 9 3
5 12 -2 22 1 22 7 0 6 3 7 7 4 4 -4 2 -11 -3 -16z m2580 -21 c-6 -6 -10 -3
-10 10 0 13 4 16 10 10 7 -7 7 -13 0 -20z m-2548 -8 c1 -7 0 -8 -3 -2 -2 5 -9
8 -14 4 -5 -3 -9 0 -9 6 0 15 23 7 26 -8z m49 -13 c-8 -12 -35 -12 -35 1 0 5
7 6 17 3 12 -5 14 -3 8 7 -5 9 -4 11 4 6 6 -4 9 -12 6 -17z m15 -19 c-8 -5
-19 -10 -25 -10 -5 0 -3 5 5 10 8 5 20 10 25 10 6 0 3 -5 -5 -10z m2488 -15
c-3 -3 -9 2 -12 12 -6 14 -5 15 5 6 7 -7 10 -15 7 -18z m-2459 -17 c-12 -22
-21 -24 -13 -3 5 11 1 14 -12 9 -13 -4 -15 -3 -6 3 23 17 42 12 31 -9z m2481
-3 c0 -7 -30 -13 -34 -7 -3 4 4 9 15 9 10 1 19 0 19 -2z m-2427 -46 c-6 -6
-19 -2 -34 11 l-24 21 29 -17 29 -18 -7 24 c-6 22 -6 23 5 7 7 -12 8 -22 2
-28z m52 -38 c3 -5 0 -13 -6 -17 -7 -4 -9 -3 -5 4 3 5 0 13 -6 15 -9 4 -10 6
-1 6 6 1 14 -3 18 -8z m35 -21 c0 -5 -4 -10 -10 -10 -5 0 -10 5 -10 10 0 6 5
10 10 10 6 0 10 -4 10 -10z m2329 -21 c-15 -9 -32 -2 -24 11 3 5 13 6 21 3 12
-4 13 -8 3 -14z m-2294 1 c3 -6 -1 -7 -9 -4 -18 7 -21 14 -7 14 6 0 13 -4 16
-10z m-12 -24 c4 -10 1 -13 -8 -9 -8 3 -12 9 -9 14 7 12 11 11 17 -5z m37 -17
c0 -5 -4 -9 -8 -9 -5 0 -9 7 -9 15 0 8 4 12 9 9 4 -3 8 -9 8 -15z m2257 -19
c-2 -23 -10 -17 -12 10 -1 10 2 17 6 14 4 -2 7 -13 6 -24z m-2217 -24 c0 -6
-5 -3 -11 6 -5 10 -17 15 -27 12 -14 -5 -14 -4 -2 4 16 12 40 -2 40 -22z m8
-26 c-7 -10 -14 -17 -17 -15 -4 4 18 35 25 35 2 0 -1 -9 -8 -20z m2227 11 c3
-5 -2 -17 -11 -25 -22 -23 -31 -20 -10 3 17 18 17 19 -1 24 -15 4 -16 5 -1 6
9 0 19 -3 23 -8z m-2195 -21 c0 -5 -4 -10 -10 -10 -5 0 -10 5 -10 10 0 6 5 10
10 10 6 0 10 -4 10 -10z m36 -47 c-6 -6 -36 9 -36 18 0 5 9 4 20 -3 10 -7 18
-14 16 -15z m2154 13 c0 -2 -7 -7 -16 -10 -8 -3 -12 -2 -9 4 6 10 25 14 25 6z
m-6 -41 c-9 -14 -18 -25 -20 -25 -7 0 0 24 11 37 18 23 26 13 9 -12z m-2091
-60 c-3 -9 -8 -14 -10 -11 -3 3 -2 9 2 15 9 16 15 13 8 -4z m2106 2 c-2 -1
-15 -11 -29 -22 -15 -12 -20 -14 -12 -4 6 9 10 18 7 20 -2 3 5 6 17 6 11 1 19
1 17 0z m-2085 -23 c3 -8 2 -12 -4 -9 -6 3 -10 10 -10 16 0 14 7 11 14 -7z
m2076 -28 c0 -2 -7 -6 -15 -10 -8 -3 -15 -1 -15 4 0 6 7 10 15 10 8 0 15 -2
15 -4z m-2052 -61 c0 -32 -7 -27 -14 10 -2 14 -1 24 4 21 5 -3 10 -17 10 -31z
m2041 25 c-6 -5 -18 -6 -26 -3 -19 8 -16 11 13 11 17 0 22 -3 13 -8z m-1999
-54 c0 -2 -7 -6 -15 -10 -8 -3 -15 -1 -15 4 0 6 7 10 15 10 8 0 15 -2 15 -4z
m15 -25 c3 -6 -3 -9 -14 -8 -11 0 -17 5 -15 9 7 11 22 10 29 -1z m1985 -1 c0
-5 -4 -10 -10 -10 -5 0 -10 5 -10 10 0 6 5 10 10 10 6 0 10 -4 10 -10z m-1966
-36 c3 -8 2 -12 -4 -9 -6 3 -10 10 -10 16 0 14 7 11 14 -7z m1931 -32 c-11 -9
-14 -10 -7 -2 15 18 16 34 0 24 -7 -5 -8 -3 -3 5 5 9 10 10 18 2 8 -8 6 -16
-8 -29z m-1945 8 c0 -5 -4 -10 -10 -10 -5 0 -10 5 -10 10 0 6 5 10 10 10 6 0
10 -4 10 -10z m11 -37 c-8 -15 -10 -15 -11 -2 0 17 10 32 18 25 2 -3 -1 -13
-7 -23z m27 -5 c-3 -7 4 -20 15 -29 17 -13 17 -16 4 -16 -9 0 -14 4 -12 8 3 4
-2 9 -10 13 -8 3 -12 12 -9 21 7 18 18 21 12 3z m1918 0 c4 -6 3 -8 -4 -4 -5
3 -13 0 -15 -6 -3 -8 -6 -6 -6 5 -1 19 14 23 25 5z m2 -42 c-2 -1 -11 -7 -20
-14 -14 -11 -16 -10 -13 5 2 10 4 19 4 20 1 1 8 0 16 -4 9 -3 15 -6 13 -7z
m-14 -62 c6 -15 4 -15 -10 -3 -15 12 -16 11 -10 -11 6 -21 5 -22 -4 -7 -11 17
-6 37 10 37 4 0 11 -7 14 -16z m-11 -47 c4 3 7 1 7 -5 0 -17 -16 -15 -31 6
-12 15 -12 16 2 5 9 -7 19 -10 22 -6z m-1833 -7 c0 -5 -4 -10 -10 -10 -5 0
-10 5 -10 10 0 6 5 10 10 10 6 0 10 -4 10 -10z m1816 -22 c4 -7 3 -8 -4 -4 -7
4 -12 2 -12 -5 0 -7 -3 -10 -6 -6 -6 5 3 27 11 27 2 0 7 -5 11 -12z m-1801
-30 c2 -18 1 -19 -10 -5 -7 9 -16 13 -21 9 -4 -4 -2 1 5 11 16 20 24 16 26
-15z m1805 -13 c11 -13 10 -14 -4 -9 -9 3 -16 10 -16 15 0 13 6 11 20 -6z
m-1815 -15 c3 -5 1 -10 -4 -10 -6 0 -11 5 -11 10 0 6 2 10 4 10 3 0 8 -4 11
-10z m1802 -35 c-19 -19 -24 -19 -24 0 0 8 4 12 8 9 4 -2 11 1 14 7 4 5 9 8
12 5 3 -3 -2 -12 -10 -21z m-1790 -17 c-3 -7 -5 -2 -5 12 0 14 2 19 5 13 2 -7
2 -19 0 -25z m1791 -23 c-6 -14 -12 -24 -12 -23 -1 2 -8 12 -16 23 -14 18 -13
19 1 7 14 -10 18 -10 23 3 3 8 8 15 10 15 3 0 0 -11 -6 -25z m-1773 -25 c-3
-5 -1 -10 6 -10 7 0 10 -2 7 -5 -3 -3 -13 -2 -22 1 -14 5 -15 9 -4 15 17 11
20 11 13 -1z m1722 -57 c-4 -3 0 -11 8 -17 12 -9 11 -14 -5 -34 -17 -21 -19
-21 -17 -3 0 11 4 18 8 15 4 -2 10 0 13 5 3 5 -1 12 -10 15 -14 5 -11 26 3 26
4 0 3 -3 0 -7z m11 -77 c-6 -14 -17 -27 -24 -30 -9 -3 -5 7 8 24 26 36 31 38
16 6z m-1711 -30 c-3 -8 -1 -17 6 -20 9 -3 9 -5 0 -5 -15 -1 -26 16 -18 29 9
15 18 12 12 -4z m20 -51 c0 -17 -13 -20 -21 -6 -4 5 0 12 6 14 7 3 13 6 14 6
0 1 1 -6 1 -14z m1647 -47 c-3 -5 -10 -5 -16 -2 -8 5 -9 1 -4 -12 5 -14 4 -16
-4 -8 -9 9 -8 17 1 32 9 15 16 18 20 10 4 -7 5 -16 3 -20z m-1640 -40 c-3 -4
-9 -8 -15 -8 -5 0 -9 4 -9 8 0 5 7 9 15 9 8 0 12 -4 9 -9z m1606 2 c0 -5 -5
-10 -11 -10 -5 0 -7 5 -4 10 3 6 8 10 11 10 2 0 4 -4 4 -10z m-1620 -57 c-11
-17 -11 -17 -6 0 3 10 6 24 7 30 0 9 2 9 5 0 3 -7 0 -20 -6 -30z m1620 23 c0
-2 -7 -7 -16 -10 -8 -3 -12 -2 -9 4 6 10 25 14 25 6z m0 -46 c0 -5 -4 -10 -10
-10 -5 0 -10 5 -10 10 0 6 5 10 10 10 6 0 10 -4 10 -10z m-30 -14 c0 -2 -8
-10 -17 -17 -16 -13 -17 -12 -4 4 13 16 21 21 21 13z m-1579 -23 c12 -16 12
-17 -2 -6 -9 7 -20 9 -24 5 -5 -4 -5 -1 -1 6 9 16 11 15 27 -5z m1599 3 c0 -3
-4 -8 -10 -11 -5 -3 -10 -1 -10 4 0 6 5 11 10 11 6 0 10 -2 10 -4z m-25 -26
c3 -5 2 -10 -4 -10 -5 0 -13 5 -16 10 -3 6 -2 10 4 10 5 0 13 -4 16 -10z m-25
-39 c-6 -12 -5 -22 3 -31 10 -12 9 -12 -5 -1 -13 10 -15 18 -8 31 5 9 6 21 2
25 -4 5 -1 5 6 1 8 -5 9 -13 2 -25z m-1550 -7 c0 -2 -7 -4 -15 -4 -8 0 -15 4
-15 10 0 5 7 7 15 4 8 -4 15 -8 15 -10z m1540 -39 c11 -13 10 -14 -4 -9 -9 3
-16 10 -16 15 0 13 6 11 20 -6z m-1544 -4 c-4 -5 -1 -12 4 -14 6 -3 5 -4 -2
-3 -15 3 -23 26 -8 26 6 0 9 -4 6 -9z m6 -58 c-6 -2 -10 -9 -7 -14 4 -5 -1 -6
-10 -2 -13 5 -14 7 -3 14 7 5 18 8 23 8 6 0 4 -3 -3 -6z m-26 -39 c-4 -11 -2
-15 8 -11 8 3 13 0 12 -6 -6 -26 -19 -47 -29 -47 -5 0 -2 9 7 19 12 14 14 20
5 23 -15 5 -21 38 -7 38 6 0 7 -7 4 -16z m1524 12 c0 -2 -7 -7 -16 -10 -8 -3
-12 -2 -9 4 6 10 25 14 25 6z m2 -25 c-8 -4 -13 -12 -13 -17 1 -5 -8 -10 -19
-10 -11 -1 -17 2 -14 7 2 4 11 6 20 2 8 -3 14 -2 13 3 -3 17 1 24 14 24 9 0 9
-2 -1 -9z m-25 -47 c-3 -3 -12 -4 -19 -1 -8 3 -5 6 6 6 11 1 17 -2 13 -5z
m-25 -49 c-2 -11 -10 -27 -18 -35 -13 -13 -13 -10 0 15 14 27 14 30 -2 37 -14
7 -14 7 3 5 14 -2 19 -9 17 -22z m-1472 1 c0 -2 -7 -7 -16 -10 -8 -3 -12 -2
-9 4 6 10 25 14 25 6z m1432 -28 c-8 -8 -9 -4 -5 13 4 13 8 18 11 10 2 -7 -1
-18 -6 -23z m-1441 -28 c5 0 9 -5 9 -11 0 -8 -5 -8 -15 1 -8 7 -14 20 -14 29
1 13 2 13 6 -1 2 -10 9 -18 14 -18z m1445 -28 c-17 -16 -18 -16 -5 5 7 12 15
20 18 17 3 -2 -3 -12 -13 -22z m-1442 -11 c-2 -3 -12 3 -22 13 -16 17 -16 18
5 5 12 -7 20 -15 17 -18z m1426 25 c0 -2 -8 -10 -17 -17 -16 -13 -17 -12 -4 4
13 16 21 21 21 13z m-1440 -46 c0 -5 -7 -7 -15 -4 -8 4 -15 8 -15 10 0 2 7 4
15 4 8 0 15 -4 15 -10z m1397 -22 c-3 -7 -5 -2 -5 12 0 14 2 19 5 13 2 -7 2
-19 0 -25z m-1395 -15 c-6 -3 -9 -10 -6 -16 4 -7 1 -7 -7 1 -12 11 -12 14 1
22 8 5 17 6 20 3 3 -3 -1 -8 -8 -10z m1395 -9 c-3 -3 -12 -4 -19 -1 -8 3 -5 6
6 6 11 1 17 -2 13 -5z m-1417 -24 c0 -5 -2 -10 -4 -10 -3 0 -8 5 -11 10 -3 6
-1 10 4 10 6 0 11 -4 11 -10z m1400 6 c0 -2 -7 -7 -16 -10 -8 -3 -12 -2 -9 4
6 10 25 14 25 6z m-1385 -26 c-3 -5 -12 -10 -18 -10 -7 0 -6 4 3 10 19 12 23
12 15 0z m1378 -10 c-19 -22 -33 -26 -33 -9 0 5 4 8 9 5 5 -3 11 1 15 9 3 8
10 15 16 15 5 0 2 -9 -7 -20z m-1390 -25 c-3 -9 -8 -14 -10 -11 -3 3 -2 9 2
15 9 16 15 13 8 -4z m-32 -28 c-10 -9 -11 -8 -5 6 3 10 9 15 12 12 3 -3 0 -11
-7 -18z m29 -15 c0 -4 -10 -9 -22 -9 -18 -2 -20 0 -8 7 18 12 30 13 30 2z
m1325 -2 c-3 -5 -1 -10 4 -10 6 0 11 -5 11 -11 0 -8 -5 -8 -15 1 -13 11 -12
30 1 30 3 0 2 -4 -1 -10z m-1374 -63 c-10 -9 -11 -8 -5 6 3 10 9 15 12 12 3
-3 0 -11 -7 -18z m1359 9 c0 -2 -7 -6 -15 -10 -8 -3 -15 -1 -15 4 0 6 7 10 15
10 8 0 15 -2 15 -4z m-1352 -39 c8 -10 6 -13 -11 -14 -12 0 -16 1 -9 4 6 3 10
9 6 14 -8 14 2 11 14 -4z m1314 -9 c-7 -7 -12 -8 -12 -2 0 14 12 26 19 19 2
-3 -1 -11 -7 -17z m-1326 -36 c1 -7 0 -8 -3 -2 -2 5 -9 8 -14 4 -5 -3 -9 0 -9
6 0 15 23 7 26 -8z m1304 -17 c-6 -8 -9 -19 -5 -25 3 -5 4 -10 1 -10 -3 0 -10
10 -17 21 -8 15 -8 19 0 15 6 -4 11 -2 11 3 0 6 5 11 11 11 8 0 8 -4 -1 -15z
m-1316 -3 c2 -4 -5 -9 -17 -9 -17 -2 -19 0 -7 7 18 12 18 12 24 2z m1286 -16
c0 -2 -7 -7 -16 -10 -8 -3 -12 -2 -9 4 6 10 25 14 25 6z m-1309 -36 c5 0 9 -5
9 -10 0 -6 -7 -6 -19 2 -12 7 -17 18 -13 27 6 14 7 14 10 -1 2 -10 8 -18 13
-18z m1318 17 c-2 -2 -17 -11 -34 -21 l-30 -17 24 20 c13 12 28 21 34 21 6 0
8 -1 6 -3z m-77 -69 c-8 -8 -9 -4 -5 13 4 13 8 18 11 10 2 -7 -1 -18 -6 -23z
m-1252 2 c0 -5 -4 -10 -10 -10 -5 0 -10 5 -10 10 0 6 5 10 10 10 6 0 10 -4 10
-10z m1271 -28 c-5 -10 -17 -24 -25 -31 -12 -10 -17 -8 -26 10 -7 12 -8 19 -2
15 6 -3 13 0 16 6 3 7 3 2 -1 -12 -5 -22 -4 -23 11 -11 9 7 16 20 16 27 0 8 5
14 10 14 7 0 7 -6 1 -18z m-1301 -48 c0 -2 -7 -4 -15 -4 -8 0 -15 4 -15 10 0
5 7 7 15 4 8 -4 15 -8 15 -10z m1250 -4 c0 -5 -2 -10 -4 -10 -3 0 -8 5 -11 10
-3 6 -1 10 4 10 6 0 11 -4 11 -10z m-1280 -20 c0 -5 -10 -14 -22 -20 -21 -10
-21 -10 -6 3 10 8 15 17 11 20 -3 4 -1 7 5 7 7 0 12 -4 12 -10z m1256 -5 c-1
-8 -6 -18 -11 -22 -4 -4 -5 -2 -1 5 4 7 2 12 -6 12 -9 0 -9 3 2 10 19 12 19
13 16 -5z m-32 -22 c4 -10 4 -14 0 -10 -4 4 -13 -1 -21 -11 -11 -15 -12 -13
-2 11 14 32 15 32 23 10z m-1278 -41 c-17 -16 -18 -16 -5 5 7 12 15 20 18 17
3 -2 -3 -12 -13 -22z m1222 -27 c-3 -3 -9 2 -12 12 -6 14 -5 15 5 6 7 -7 10
-15 7 -18z m-1208 -5 c0 -5 -2 -10 -4 -10 -3 0 -8 5 -11 10 -3 6 -1 10 4 10 6
0 11 -4 11 -10z m1240 6 c0 -2 -7 -9 -15 -16 -13 -11 -14 -10 -9 4 5 14 24 23
24 12z m-1265 -17 c11 -16 1 -19 -13 -3 -7 8 -8 14 -3 14 5 0 13 -5 16 -11z
m1225 -10 c0 -5 -4 -9 -10 -9 -5 0 -10 5 -10 11 0 5 -5 7 -12 3 -7 -4 -8 -3
-4 4 7 12 36 5 36 -9z m-1245 -9 c-3 -5 -12 -10 -18 -10 -7 0 -6 4 3 10 19 12
23 12 15 0z m1193 -20 c-7 -11 -19 -20 -27 -20 -8 0 -4 8 10 20 30 25 32 25
17 0z m-1185 -11 c-8 -8 -13 -7 -18 2 -5 8 -4 10 3 5 7 -4 12 -2 12 5 0 7 3 9
7 6 4 -4 2 -12 -4 -18z m1217 11 c0 -5 -5 -10 -11 -10 -5 0 -7 5 -4 10 3 6 8
10 11 10 2 0 4 -4 4 -10z m-1262 -45 c-3 -3 -9 2 -12 12 -6 14 -5 15 5 6 7 -7
10 -15 7 -18z m2 -27 c0 -6 -7 -5 -15 2 -14 12 -15 10 -11 -15 3 -15 2 -25 -1
-21 -9 9 -13 38 -7 47 6 11 34 0 34 -13z m-41 -51 c0 -9 -2 -9 -6 0 -3 10 -10
10 -26 2 -21 -10 -21 -9 -3 5 20 16 37 13 35 -7z m1196 14 c3 -5 0 -13 -6 -17
-7 -4 -9 -3 -5 4 3 5 0 13 -6 15 -9 4 -10 6 -1 6 6 1 14 -3 18 -8z m-1222 -36
c-3 -9 -8 -14 -10 -11 -3 3 -2 9 2 15 9 16 15 13 8 -4z m1120 -30 c-3 -9 -8
-14 -10 -11 -3 3 -2 9 2 15 9 16 15 13 8 -4z m27 -9 c0 -2 -7 -9 -15 -16 -13
-11 -14 -10 -9 4 5 14 24 23 24 12z m-1185 -16 c3 -6 -1 -7 -9 -4 -18 7 -21
14 -7 14 6 0 13 -4 16 -10z m1145 -10 c0 -13 -29 -20 -36 -8 -5 7 -2 8 6 3 10
-6 12 -4 7 8 -4 11 -2 14 9 10 7 -3 14 -9 14 -13z m-1164 -15 c-1 -8 -6 -18
-11 -22 -4 -4 -5 -2 -1 5 5 8 0 12 -16 13 -23 1 -23 1 2 9 14 4 26 8 27 9 1 1
0 -6 -1 -14z m1120 -7 c4 -7 3 -8 -4 -4 -7 4 -12 1 -12 -8 0 -9 -4 -16 -10
-16 -12 0 -9 22 5 32 13 10 13 10 21 -4z m-1169 -22 c-10 -8 -18 -17 -18 -20
2 -18 -1 -22 -21 -23 -22 -2 -22 -1 2 12 14 8 21 14 16 15 -5 0 -3 7 4 15 7 8
18 15 24 15 6 0 3 -7 -7 -14z m1125 -42 c-8 -14 -9 -13 -9 10 0 18 3 24 9 18
7 -7 7 -16 0 -28z m-32 -4 c-12 -23 -16 -24 -26 -8 -4 7 -3 8 4 4 7 -4 12 -1
12 8 0 9 5 16 10 16 7 0 7 -6 0 -20z m-1120 -15 c0 -2 -9 -9 -20 -15 -12 -6
-20 -7 -20 -1 0 5 8 12 18 14 9 3 18 5 20 6 1 0 2 -1 2 -4z m-46 -33 c2 -4 0
-14 -6 -22 -8 -12 -9 -11 -4 3 5 15 2 17 -17 12 -17 -5 -19 -4 -7 4 18 13 27
14 34 3z m-24 -38 c0 -2 -9 0 -20 6 -11 6 -20 13 -20 16 0 2 9 0 20 -6 11 -6
20 -13 20 -16z m1070 1 c-7 -8 -20 -14 -29 -14 -13 1 -13 2 2 6 9 2 14 9 11
15 -4 7 -2 8 4 4 7 -4 12 -2 12 5 0 7 3 9 6 6 4 -4 1 -13 -6 -22z m60 11 c-4
-4 -16 -4 -26 2 -16 9 -14 10 8 9 15 -1 23 -6 18 -11z m-1164 -17 c3 -6 1 -16
-5 -22 -9 -9 -11 -8 -5 6 5 13 2 16 -12 10 -12 -4 -15 -3 -10 5 9 15 23 15 32
1z m-32 -28 c4 -5 -4 -7 -16 -3 -16 4 -19 2 -13 -8 5 -9 4 -11 -4 -6 -6 4 -9
12 -6 17 8 12 32 12 39 0z m1076 -1 c0 -5 -5 -10 -11 -10 -5 0 -7 5 -4 10 3 6
8 10 11 10 2 0 4 -4 4 -10z m-1110 -35 c11 -13 10 -14 -4 -9 -9 3 -16 10 -16
15 0 13 6 11 20 -6z m1090 5 c0 -5 -4 -10 -10 -10 -5 0 -10 5 -10 10 0 6 5 10
10 10 6 0 10 -4 10 -10z m-1115 -20 c3 -5 2 -10 -4 -10 -5 0 -13 5 -16 10 -3
6 -2 10 4 10 5 0 13 -4 16 -10z m1090 -1 c11 -16 1 -19 -13 -3 -7 8 -8 14 -3
14 5 0 13 -5 16 -11z m-1141 -23 c-4 -11 1 -13 18 -10 21 4 21 4 3 -5 -22 -10
-41 1 -31 18 10 16 16 14 10 -3z m1074 0 c-10 -7 -14 -17 -10 -21 4 -5 1 -5
-7 0 -12 7 -11 10 4 22 24 17 36 17 13 -1z m52 4 c0 -5 -2 -10 -4 -10 -3 0 -8
5 -11 10 -3 6 -1 10 4 10 6 0 11 -4 11 -10z m-1144 -47 c-3 -4 -6 -1 -6 6 0 7
-4 9 -10 6 -6 -4 -7 1 -3 11 6 15 7 15 15 -1 6 -9 7 -19 4 -22z m1069 7 c3 -5
1 -10 -4 -10 -6 0 -11 5 -11 10 0 6 2 10 4 10 3 0 8 -4 11 -10z m-1085 -18 c0
-4 -10 -9 -22 -9 -18 -2 -20 0 -8 7 18 12 30 13 30 2z m1038 -14 c2 -9 -5 -19
-15 -22 -14 -6 -16 -5 -5 5 14 15 16 33 3 24 -5 -3 -12 -1 -15 4 -4 5 2 8 11
7 10 -2 19 -10 21 -18z m-1084 -4 c3 -8 2 -12 -4 -9 -6 3 -10 1 -10 -6 0 -7
-2 -10 -5 -7 -5 5 4 38 10 38 2 0 6 -7 9 -16z m1046 -5 c0 -5 -4 -9 -8 -9 -5
0 -9 7 -9 15 0 8 4 12 9 9 4 -3 8 -9 8 -15z m-40 -24 c0 -7 -30 -13 -34 -7 -3
4 4 9 15 9 10 1 19 0 19 -2z m-1069 -22 c7 -10 9 -15 5 -11 -5 4 -16 2 -25 -5
-14 -11 -15 -10 -1 7 14 18 13 19 -3 13 -11 -4 -16 -3 -12 3 9 15 21 12 36 -7z
m1043 -12 c-2 -3 -12 3 -22 13 -16 17 -16 18 5 5 12 -7 20 -15 17 -18z m-43 5
c5 3 9 0 9 -6 0 -15 -23 -7 -26 8 -1 7 0 8 3 2 2 -5 9 -8 14 -4z m-1048 -21
c-3 -9 -8 -14 -10 -11 -3 3 -2 9 2 15 9 16 15 13 8 -4z m1020 -2 c-7 -2 -19
-2 -25 0 -7 3 -2 5 12 5 14 0 19 -2 13 -5z m-1073 -17 c0 -2 -7 -6 -15 -10 -8
-3 -15 -1 -15 4 0 6 7 10 15 10 8 0 15 -2 15 -4z m1050 -6 c0 -5 -2 -10 -4
-10 -3 0 -8 5 -11 10 -3 6 -1 10 4 10 6 0 11 -4 11 -10z m-1086 -15 c3 -8 1
-15 -4 -15 -6 0 -10 7 -10 15 0 8 2 15 4 15 2 0 6 -7 10 -15z m-38 -10 c-3
-10 1 -15 11 -15 9 0 14 -3 10 -6 -12 -12 -37 5 -31 21 3 8 8 15 11 15 3 0 3
-7 -1 -15z m1027 -12 c-7 -2 -19 -2 -25 0 -7 3 -2 5 12 5 14 0 19 -2 13 -5z
m-1105 -37 c-2 -18 -6 -22 -14 -15 -9 7 -14 5 -17 -6 -4 -11 -4 -11 -3 2 1 10
8 17 14 16 7 -2 12 4 12 12 0 8 2 15 5 15 3 0 4 -11 3 -24z m1082 20 c0 -2 -7
-9 -15 -16 -13 -11 -14 -10 -9 4 5 14 24 23 24 12z m-95 -16 c-3 -5 -12 -10
-18 -10 -7 0 -6 4 3 10 19 12 23 12 15 0z m-48 -42 c-3 -7 -5 -2 -5 12 0 14 2
19 5 13 2 -7 2 -19 0 -25z m-44 -5 c-3 -7 -6 -13 -8 -13 -2 0 -5 6 -8 13 -3 8
1 14 8 14 7 0 11 -6 8 -14z m-992 -10 c13 -17 13 -17 -6 -3 -11 8 -22 16 -24
17 -2 2 0 3 6 3 6 0 17 -8 24 -17z m1011 -5 c-7 -7 -12 -8 -12 -2 0 14 12 26
19 19 2 -3 -1 -11 -7 -17z m-1052 1 c0 -5 4 -8 9 -4 5 3 12 1 15 -4 7 -11 -13
-9 -32 3 -8 5 -18 4 -25 -3 -6 -6 -18 -11 -26 -11 -10 0 -6 6 9 14 31 17 50
19 50 5z m923 -29 c-9 -16 -21 -30 -25 -30 -5 0 1 14 14 30 12 17 23 30 25 30
2 0 -4 -13 -14 -30z m85 26 c-2 -1 -14 -10 -28 -21 -19 -16 -22 -16 -11 -2 15
20 2 23 -19 5 -12 -11 -12 -10 -2 3 7 9 24 17 38 17 13 0 24 -1 22 -2z m-122
-34 c-17 -16 -18 -16 -5 5 7 12 15 20 18 17 3 -2 -3 -12 -13 -22z m-958 -3 c3
-11 2 -11 -7 1 -10 13 -12 13 -20 0 -5 -8 -7 -19 -4 -25 4 -5 3 -7 -2 -3 -4 4
-15 2 -23 -5 -9 -6 -5 3 8 21 25 33 41 37 48 11z m62 17 c0 -2 -7 -7 -16 -10
-8 -3 -12 -2 -9 4 6 10 25 14 25 6z m867 -26 c1 -11 -2 -22 -8 -25 -7 -5 -7
18 0 43 3 8 7 -1 8 -18z m-1005 1 c8 11 9 11 6 1 -4 -16 -22 -18 -24 -2 -2 7
-1 6 3 -1 4 -8 8 -7 15 2z m976 -16 c-3 -3 -9 2 -12 12 -6 14 -5 15 5 6 7 -7
10 -15 7 -18z m-997 -12 c13 -16 12 -17 -3 -4 -16 12 -18 11 -18 -4 0 -10 -3
-16 -6 -12 -6 6 2 37 9 37 3 0 11 -8 18 -17z m919 -28 c0 -5 -4 -4 -9 4 -6 9
-11 10 -15 2 -4 -6 -11 -11 -17 -11 -5 0 -1 8 9 18 16 17 32 11 32 -13z m-975
16 c3 -5 0 -13 -6 -17 -7 -4 -9 -3 -5 4 3 6 -2 13 -11 15 -16 4 -16 5 -1 6 9
0 19 -3 23 -8z m885 -12 c-7 -11 -14 -18 -17 -15 -3 3 0 12 7 21 18 21 23 19
10 -6z m24 -4 c-9 -14 -18 -25 -21 -25 -5 0 5 18 20 38 17 22 18 13 1 -13z
m-994 -15 c-24 -15 -36 -11 -14 4 10 8 21 12 24 10 2 -3 -2 -9 -10 -14z m60
16 c0 -2 -7 -7 -16 -10 -8 -3 -12 -2 -9 4 6 10 25 14 25 6z m-134 -34 c-17
-16 -18 -16 -5 5 7 12 15 20 18 17 3 -2 -3 -12 -13 -22z m-76 8 c0 -5 -5 -10
-11 -10 -5 0 -7 5 -4 10 3 6 8 10 11 10 2 0 4 -4 4 -10z m1010 -12 c10 -21 10
-21 -3 -6 -8 10 -18 14 -22 10 -5 -4 -5 -1 -1 6 10 17 14 15 26 -10z m70 12
c-8 -5 -19 -10 -25 -10 -5 0 -3 5 5 10 8 5 20 10 25 10 6 0 3 -5 -5 -10z
m-1180 -20 c0 -5 -4 -10 -10 -10 -5 0 -10 5 -10 10 0 6 5 10 10 10 6 0 10 -4
10 -10z m51 -4 c-13 -16 -54 -29 -45 -15 3 5 12 9 20 9 8 0 14 5 14 10 0 6 5
10 11 10 8 0 8 -4 0 -14z m99 10 c0 -2 -7 -7 -16 -10 -8 -3 -12 -2 -9 4 6 10
25 14 25 6z m825 -6 c-3 -5 -16 -10 -28 -9 -20 1 -20 2 3 9 14 4 26 8 28 9 2
1 0 -3 -3 -9z m110 -8 c-3 -3 -11 0 -18 7 -9 10 -8 11 6 5 10 -3 15 -9 12 -12z
m-1005 -2 c0 -5 -5 -10 -11 -10 -5 0 -7 5 -4 10 3 6 8 10 11 10 2 0 4 -4 4
-10z m-225 -10 c-3 -5 -12 -10 -18 -10 -7 0 -6 4 3 10 19 12 23 12 15 0z m45
-23 c0 -5 -4 -5 -10 -2 -5 3 -10 14 -10 23 0 15 2 15 10 2 5 -8 10 -19 10 -23z
m59 23 c-6 -5 -18 -6 -26 -3 -19 8 -16 11 13 11 17 0 22 -3 13 -8z m893 -22
c-7 -7 -12 -8 -12 -2 0 5 -5 2 -10 -6 -7 -12 -9 -10 -7 7 1 18 4 20 16 10 12
-10 14 -9 7 8 -6 16 -5 18 5 8 10 -10 10 -16 1 -25z m85 19 c2 -3 -8 -4 -22
-4 -14 0 -25 3 -25 8 0 7 38 4 47 -4z m-1122 -7 c-3 -5 2 -10 11 -10 10 0 15
-3 11 -6 -10 -10 -39 5 -32 16 3 5 8 10 11 10 3 0 2 -4 -1 -10z m-87 -17 c-9
-9 -30 -17 -45 -19 -23 -2 -25 -1 -10 7 9 6 22 7 27 4 6 -3 13 1 16 9 3 9 11
16 17 16 6 0 4 -7 -5 -17z m1034 -2 c-4 -10 -7 -11 -10 -3 -2 7 -8 10 -12 7
-5 -3 -11 -2 -14 3 -2 4 6 8 19 8 16 0 21 -4 17 -15z m45 13 c-3 -3 -12 -4
-19 -1 -8 3 -5 6 6 6 11 1 17 -2 13 -5z m-1252 -42 c-6 -8 -35 12 -35 24 0 11
4 10 18 -3 10 -10 18 -19 17 -21z m-362 3 c-7 -21 -12 -19 -10 4 0 11 5 18 9
15 4 -3 5 -11 1 -19z m51 13 c-5 -8 -1 -9 12 -4 14 5 16 4 7 -5 -13 -13 -37
-3 -28 12 4 5 8 9 11 9 3 0 2 -5 -2 -12z m85 -11 c0 -9 -2 -8 -6 1 -2 6 -10 9
-15 6 -7 -4 -8 -2 -4 5 9 13 26 5 25 -12z m48 1 c2 -17 0 -19 -7 -8 -5 8 -6
18 -4 22 8 12 10 10 11 -14z m130 0 c-3 -8 -6 -5 -6 6 -1 11 2 17 5 13 3 -3 4
-12 1 -19z m126 8 c4 -10 1 -13 -8 -9 -8 3 -12 9 -9 14 7 12 11 11 17 -5z
m947 -11 c5 3 11 1 14 -4 4 -5 -2 -8 -11 -7 -10 2 -18 9 -19 17 -1 9 0 10 3 1
3 -7 8 -10 13 -7z m55 5 c17 -18 17 -20 2 -14 -9 3 -17 10 -17 16 0 5 -5 6
-12 2 -7 -4 -8 -3 -4 4 9 16 10 15 31 -8z m-1551 -5 c-4 -8 -11 -15 -16 -15
-6 0 -5 6 2 15 7 8 14 15 16 15 2 0 1 -7 -2 -15z m354 -10 c-3 -3 -9 2 -12 12
-6 14 -5 15 5 6 7 -7 10 -15 7 -18z m1056 13 c-5 -8 -2 -9 10 -5 10 4 15 3 11
-3 -3 -6 -1 -10 6 -10 7 0 10 -3 7 -6 -10 -9 -49 16 -43 27 4 5 8 9 11 9 3 0
2 -5 -2 -12z m-1268 -10 c4 -6 3 -8 -3 -5 -6 4 -13 0 -17 -8 -3 -8 -10 -15
-16 -15 -5 0 -2 9 7 20 20 23 20 23 29 8z m69 2 c3 -5 1 -10 -4 -10 -6 0 -11
5 -11 10 0 6 2 10 4 10 3 0 8 -4 11 -10z m1085 4 c0 -8 -19 -13 -24 -6 -3 5 1
9 9 9 8 0 15 -2 15 -3z m76 -15 c3 -5 -6 -5 -20 1 -21 8 -26 7 -26 -7 0 -9 -3
-14 -6 -10 -4 3 -4 13 -1 21 6 15 42 11 53 -5z m-241 1 c-9 -14 19 -12 34 3
10 10 11 9 5 -6 -4 -11 -15 -16 -35 -15 -22 2 -26 5 -17 15 12 15 22 17 13 3z
m153 -16 c1 0 -16 -1 -38 -1 -23 0 -36 3 -29 8 7 4 19 5 27 1 11 -4 13 -2 7 9
-7 12 -6 12 11 -1 10 -8 20 -15 22 -16z m-1213 6 c-27 -12 -43 -12 -25 0 8 5
22 9 30 9 10 0 8 -3 -5 -9z m121 -26 c1 -16 0 -23 -3 -16 -3 6 -10 9 -16 6 -8
-5 -8 -2 1 7 17 18 15 30 -3 23 -8 -4 -15 -2 -15 4 0 6 8 9 17 8 12 -2 18 -13
19 -32z m744 2 c0 -4 -9 -1 -19 6 -11 7 -17 16 -15 20 5 8 34 -15 34 -26z m40
24 c0 -5 -5 -10 -11 -10 -5 0 -7 5 -4 10 3 6 8 10 11 10 2 0 4 -4 4 -10z m69
-12 c8 3 11 0 7 -7 -11 -17 -24 -13 -36 12 -9 19 -9 20 2 6 7 -9 19 -14 27
-11z m51 7 c0 -8 -4 -15 -10 -15 -5 0 -7 7 -4 15 4 8 8 15 10 15 2 0 4 -7 4
-15z m-1092 -8 c13 5 14 3 5 -7 -13 -14 -33 -5 -32 13 0 9 2 9 5 0 3 -7 13 -9
22 -6z m270 -8 c9 -12 9 -16 -1 -16 -7 0 -14 9 -14 20 -1 11 -1 18 0 16 2 -2
8 -11 15 -20z m172 7 c-7 -7 -13 -7 -20 0 -6 6 -3 10 10 10 13 0 16 -4 10 -10z
m48 3 c-2 -6 -7 -10 -12 -9 -5 1 -13 -4 -18 -12 -8 -10 -9 -10 -5 2 2 8 10 14
16 13 6 -2 11 2 11 7 0 6 3 10 6 10 3 0 4 -5 2 -11z m114 -11 c-7 -7 -12 -8
-12 -2 0 14 12 26 19 19 2 -3 -1 -11 -7 -17z m48 1 c0 -6 -4 -7 -10 -4 -5 3
-10 11 -10 16 0 6 5 7 10 4 6 -3 10 -11 10 -16z m60 0 c0 -14 -17 -10 -23 5
-4 10 -1 13 9 9 7 -3 14 -9 14 -14z m45 -6 c-11 -7 -24 -13 -29 -13 -6 1 -1 6
12 13 12 7 19 17 15 22 -4 4 -2 5 6 0 12 -7 11 -10 -4 -22z m-722 -7 c4 -10 1
-13 -8 -9 -8 3 -12 9 -9 14 7 12 11 11 17 -5z m200 7 c-7 -2 -19 -2 -25 0 -7
3 -2 5 12 5 14 0 19 -2 13 -5z m597 -3 c0 -5 -7 -7 -15 -4 -8 4 -15 8 -15 10
0 2 7 4 15 4 8 0 15 -4 15 -10z"/>
<path d="M1785 7210 c-3 -5 -1 -10 4 -10 6 0 11 5 11 10 0 6 -2 10 -4 10 -3 0
-8 -4 -11 -10z"/>
<path d="M3760 6189 c0 -5 5 -7 10 -4 6 3 10 8 10 11 0 2 -4 4 -10 4 -5 0 -10
-5 -10 -11z"/>
<path d="M2120 7290 c0 -5 5 -10 11 -10 5 0 7 5 4 10 -3 6 -8 10 -11 10 -2 0
-4 -4 -4 -10z"/>
<path d="M2875 7260 c3 -5 8 -10 11 -10 2 0 4 5 4 10 0 6 -5 10 -11 10 -5 0
-7 -4 -4 -10z"/>
<path d="M3280 7221 c0 -5 5 -13 10 -16 6 -3 10 -2 10 4 0 5 -4 13 -10 16 -5
3 -10 2 -10 -4z"/>
<path d="M4907 6623 c-4 -3 -7 -11 -7 -17 0 -6 5 -5 12 2 6 6 9 14 7 17 -3 3
-9 2 -12 -2z"/>
<path d="M3740 5200 c0 -5 5 -10 10 -10 6 0 10 5 10 10 0 6 -4 10 -10 10 -5 0
-10 -4 -10 -10z"/>
<path d="M3730 5169 c0 -5 5 -7 10 -4 6 3 10 8 10 11 0 2 -4 4 -10 4 -5 0 -10
-5 -10 -11z"/>
<path d="M6238 4293 c7 -3 16 -2 19 1 4 3 -2 6 -13 5 -11 0 -14 -3 -6 -6z"/>
<path d="M5303 1245 c0 -9 4 -14 9 -13 5 2 10 8 10 13 0 5 -5 11 -10 13 -5 1
-9 -4 -9 -13z"/>
<path d="M3516 742 c-3 -6 -1 -14 5 -17 14 -9 20 -2 10 14 -6 8 -11 9 -15 3z"/>
<path d="M2715 410 c-3 -5 -1 -10 4 -10 6 0 11 5 11 10 0 6 -2 10 -4 10 -3 0
-8 -4 -11 -10z"/>
<path d="M2340 339 c0 -5 5 -7 10 -4 6 3 10 8 10 11 0 2 -4 4 -10 4 -5 0 -10
-5 -10 -11z"/>
</g>
</svg>
