<svg version="1" xmlns="http://www.w3.org/2000/svg" width="933.333" height="933.333" viewBox="0 0 700.000000 700.000000"><path d="M69.8 71.2c-1.2 3.1-.2 14.6 1.5 17.1 3.3 5.1 6.2 6.1 17.7 6.3 9.9.2 16.6 1.2 21.5 3.3 1.1.5 3.5 1.5 5.4 2.2 9.8 3.7 21.5 15.9 25.2 26.3 1.9 5.6 1.9 8.6 1.9 187.9-.1 100.2-.1 196.6-.1 214.2 0 35.9-.7 41.4-6.5 52.5-5.6 10.8-15 19.1-26.2 23.2-4.7 1.8-8.1 2.2-19.4 2.2-15.7.1-18.2 1.1-20.6 8.2-1.3 3.7-1.1 12.9.3 14.3.9.8 301.4.8 314-.1 5.5-.4 10.9-.9 12-1.1 1.1-.3 4.2-.8 6.8-1.1 42.1-5.7 87.8-24.8 124.3-52.1 13.5-10.1 35.8-31.8 45.6-44.5 30.2-39 48.3-86.2 55.3-143.5 2.1-17.9 2.1-52.1 0-68.5-.3-1.9-.7-5.5-1-8-5.7-45.4-24-95.7-47.6-130.6-24.4-36.3-64.1-69.6-103.2-86.6-5.1-2.2-10.6-4.6-12.3-5.4-12.7-5.7-41.4-13-58.9-15-3.3-.3-6.9-.9-8-1.2-1.1-.3-75.2-.7-164.6-.9-134.5-.4-162.7-.2-163.1.9zm76 23.2c7.1 1.9 14.6 6.9 19.4 13 4.9 6.2 7 10.3 9.8 19.1 1.9 6.2 2.2 10.1 2.7 35.5.6 28.8.9 363.8.3 391.4-.4 17-1.1 21.6-5 30.1-6.6 14.5-20.3 24.1-35.7 24.9-3.5.2-6.3.2-6.3.1s3.1-3.3 6.8-7.2c9.8-9.9 13.7-19 15.9-36.8.5-3.3.8-101.8.8-219v-213l-2.2-8.3c-1.3-4.6-3.3-10.5-4.5-13-2.5-5.1-13-16.2-15.2-16.2-.8 0-1.8-.5-2.1-1-.9-1.5 9.1-1.2 15.3.4zM412 97.1c2.5.6 5.6 1.3 7 1.6 13.2 2.5 41.2 15.5 56 26 11.1 7.9 27.2 23.6 35.1 34.3 19.6 26.3 38.6 72.9 45.4 111 2.3 13.1 3.5 20.2 4 25 .3 3 .8 6.8 1 8.5 2.8 23.1 2.8 75.3 0 104-1.1 11.5-1.7 15.8-3.5 25-.5 2.7-1.2 6.6-1.5 8.5-1.1 6.7-5.6 23.6-9.2 34.5-15.9 48.4-41.4 84.3-77.2 108.4-16.5 11.2-48.7 23.2-61.6 23-3.9-.1-3.9-.1-1.2-1.1 4.7-1.7 18.7-9.6 28.7-16.3 32.5-21.7 58.6-51.3 75.6-86 5.9-11.9 11.4-25.6 13.4-33 .5-1.7 1.5-5.5 2.4-8.6 3.4-12.6 7-33.4 10.1-58.4 2.7-21.2 2.7-80.3.1-94.2-.2-1-.7-4.5-1-7.8-1.1-10-5.5-34.4-8.2-45.5-1.4-5.8-2.7-11.4-3-12.5-1.1-5.3-7.6-25.2-10.9-33.1-5.6-13.5-11-23.6-20.1-37.4-21-32-47.2-55.8-79.1-71.9-9.9-5.1-10.4-5.9-2.3-4zm-118.2 8c16.6.4 33.7 4.7 44.8 11.2 8.9 5.2 14.6 10.8 20.9 20.2 12.5 18.8 20.8 42.4 23.4 66.5.9 8.5.7 31.2-.3 38-2.6 16.9-6.8 31.1-13.1 44.6-8.5 18.4-27.6 33.7-50 40.3-3.8 1.1-8.3 2.2-10 2.5-1.6.3-6.1 1.1-10 1.8-4.6.8-17.3 1.2-36.5 1.3h-29.5l.1-74c0-83.8.9-118.4 3.5-131.2 2.2-11.3 11.9-19.7 24.2-21 2.8-.3 5.3-.6 5.4-.7.3-.2 6.7-.1 27.1.5zm60.2 2.6c30 9.1 53.8 42.2 59.4 82.3 5.9 43.3-1.3 81.2-20.3 106.8-10.1 13.5-18.7 20.3-35.8 28.4-12 5.6-16.3 6.1-8.2.8 12.6-8.1 26.2-24.3 32.5-38.6 1.4-3.2 3-6.8 3.5-7.9 1.2-2.7 5-15.3 5.5-18.5.3-1.4.7-3.2.9-4 1.4-4.8 3.1-25.4 2.9-35.5-.1-8.5-1.3-26-1.9-28.5-.2-.8-.7-3.5-1-6-1.2-8.9-5.7-24.7-9.7-34-8-18.8-21.4-35.5-35.3-44l-7-4.2 4.5.6c2.5.4 7 1.4 10 2.3zm105.3 43.7c21.3 22 37.6 49.5 49.3 82.9 3.1 9 9.7 32.6 10.8 38.7.2 1.4 1.1 6.3 1.9 11 .9 4.7 1.9 11 2.3 14 .3 3 .8 6.6.9 8 3.1 25.5 2.6 82.1-.9 106-.3 1.9-.8 5.5-1.2 8-2.3 17.7-9.2 44.2-15.9 61.1-3.7 9.4-11.5 24.8-16.4 32.4-3 4.7-13.1 18.5-13.4 18.5-.2 0 .9-3.8 2.4-8.4 1.5-4.6 3.1-10.4 3.4-12.7.4-2.4.9-4.7 1.1-5 .6-1 1.5-12.5 1.8-21.7.7-23.9-7-51.8-20.4-73.7-15.7-25.6-40.3-44.3-75-56.8-12.5-4.5-31.1-9.2-38.4-9.6-3.1-.2-1.3-1 4.5-2.1 8.8-1.6 9.1-1.7 15.4-3.5 30.5-8.6 57.1-24.2 73.5-43.3 15.4-17.8 23.2-35.6 26.4-60.2 4-31.5-3.7-63.3-22-90.1-5.6-8.3-5.6-8.3-1.8-5 2.2 1.8 7.4 7 11.7 11.5zm-160.7 202c18.5 1.5 32.7 6.1 46.1 14.9 22.4 14.9 38.6 40.6 44.7 71.3 2.7 13.9 3.1 17.5 3.1 36.4 0 30.5-3.1 49.6-10.9 66.4-13.9 30.1-38.4 48.5-68.1 50.9-3.8.4-10.1 1-14 1.4-3.8.4-13.3.8-21 .7-16.1 0-24.7-2-33.1-7.6-5.2-3.6-6-5.1-8.8-19.3-2.8-13.5-2.9-19.7-3-117.2l-.1-98.3 17.5-.2c21.8-.4 38.4-.1 47.6.6zm46.5 1c19.6 2.1 41.9 16.3 56 35.6 10 13.8 17.8 32.3 19.5 46.5.4 2.7.8 5.3 1 5.6 1.7 2.9 2.5 43.5 1.1 56.4-4.4 41.2-22.1 72.8-49.7 88.8-6 3.5-25.4 9.9-28.8 9.5-2.4-.3-1.8-.7 3.9-3.6 24.6-12 42.4-35.9 50.3-67.9 4.3-17 5.1-24.7 5.1-46.8 0-26.5-1.6-40.3-6.7-56.5-2.9-9.3-12-27.5-17.3-34.5-9.7-13-23.3-24.5-35.7-30.6-2.7-1.3-4.8-2.7-4.8-3.2 0-.4.4-.6.9-.3s2.8.8 5.2 1z"/></svg>